<svg width="1339.6" height="154.401" xmlns="http://www.w3.org/2000/svg"><path d="M455 19.6q1-.4 2.4-.4a6.113 6.113 0 0 1 1.011.095q1.433.243 3.589 1.105 5.103 2.33 7.376 5.583A9.926 9.926 0 0 1 471.2 31.8q0 2.892-5.932 23.723A1476.542 1476.542 0 0 1 463 63.4a584.354 584.354 0 0 1-8.148 25.703q-12.684 36.78-24.612 50.874A39.664 39.664 0 0 1 427 143.4q-3.028 2.665-5.763 3.716a9.562 9.562 0 0 1-3.437.684 11.353 11.353 0 0 1-6.376-2.294q-8.53-5.862-19.024-26.706a129.774 129.774 0 0 1-.942-1.926q-.41-.856-.85-1.799a233.53 233.53 0 0 1-.908-1.975q-1.5-3.3-3.1-6.6a276.266 276.266 0 0 1-.643-1.334q-.8-1.673-1.17-2.523a16.059 16.059 0 0 1-.187-.443q-.537-1.252-1.394-3.145A332.536 332.536 0 0 0 383 98.6a149.984 149.984 0 0 1-.818-1.829q-.366-.836-.679-1.583a82.91 82.91 0 0 1-.203-.488 84.73 84.73 0 0 0-.331-.794q-.463-1.093-.762-1.692a11.847 11.847 0 0 0-.007-.014q-1.505-3.009-1.752-3.922A1.149 1.149 0 0 1 378.4 88q0-.8-1.2-.4-1.074.179-3.908 6.921a136.103 136.103 0 0 0-.692 1.679q-8.862 21.991-17.185 33.344A54.757 54.757 0 0 1 351.8 134a23.333 23.333 0 0 1-4.392 3.825 16.074 16.074 0 0 1-9.008 2.775q-2.4 0-4-.8-3.52-1.936-6.886-8.055A50.286 50.286 0 0 1 326.6 130q-7.67-15.341-13.6-55.438a624.38 624.38 0 0 1-.2-1.362q-1.8-12.6-6-25.6a280.636 280.636 0 0 1-1.359-4.251Q302.8 34.838 302.8 32.4q0-2 1.6-4.6 1.4-2.4 5.6-4.2a24.715 24.715 0 0 1 3.499-1.214q1.965-.512 3.781-.577a14.668 14.668 0 0 1 .52-.009 20.193 20.193 0 0 1 .716.012q.994.035 1.452.178A1.669 1.669 0 0 1 320 22q6.468 1.824 10.323 13.275A64.729 64.729 0 0 1 331.8 40.4q1.8 6.6 3.8 21.6 5.6 38.8 7.6 38.8a.484.484 0 0 0 .295-.183Q344.23 99.863 346 96q5.641-13.74 11.281-23.61a113.173 113.173 0 0 1 4.319-6.99 79.679 79.679 0 0 1 3.934-5.434q6.659-8.359 11.911-8.925A7.046 7.046 0 0 1 378.2 51a6.255 6.255 0 0 1 1.431.183q1.586.375 3.669 1.517 3.1 1.7 5.1 3.9a47.2 47.2 0 0 1 4.96 6.654q4.574 7.271 9.021 18.582A204.929 204.929 0 0 1 404.4 87.2a131.997 131.997 0 0 0 5.672 13.582A117.231 117.231 0 0 0 411.7 104a97.566 97.566 0 0 0 1.33 2.451q2.567 4.56 3.788 5.233a.808.808 0 0 0 .382.116q.872 0 7.377-15.679A879.253 879.253 0 0 0 426.6 91.2a405.321 405.321 0 0 0 5.94-16.064q2.915-8.377 5.979-18.111A955.302 955.302 0 0 0 444.8 36.2q2.675-9.697 3.813-12.266A4.433 4.433 0 0 1 449 23.2a4.644 4.644 0 0 1 1.175-1.358q1.6-1.301 4.825-2.242ZM546.2.2a15.212 15.212 0 0 0-.269.003Q544.283.232 540.6.6a42.768 42.768 0 0 0-3.272.487q-3.211.601-6.759 1.724A83.3 83.3 0 0 0 523.8 5.3a96.561 96.561 0 0 0-4.048 1.785q-6.615 3.108-10.952 6.515a42.688 42.688 0 0 0-2.606 2.286A30.321 30.321 0 0 0 496.2 38.6a31.022 31.022 0 0 0 .575 5.882A38.243 38.243 0 0 0 499 51.8q1.913 4.388 5.154 8.712A62.61 62.61 0 0 0 510 67.2a49.48 49.48 0 0 0 3.144 2.855q6.291 5.286 18.256 12.745a401.28 401.28 0 0 1 4.576 2.869q20.144 12.823 28.543 21.825A30.872 30.872 0 0 1 569 113.4q1.4 2.6 1.4 5.2 0 7.6-11.6 11.6-3.4 1-6.6 1-9.8 0-23.2-8a44.293 44.293 0 0 1-2.215-1.42A48.445 48.445 0 0 1 518 114a37.062 37.062 0 0 1-3.771-4.833A27.881 27.881 0 0 1 510 98.6a74.257 74.257 0 0 1-.133-.825q-.267-1.721-.267-2.375 0-.4.8-6a58.137 58.137 0 0 0 .152-.843q.29-1.684.392-2.93A15.121 15.121 0 0 0 511 84.4a7.386 7.386 0 0 0-.891-3.508A10.031 10.031 0 0 0 508.6 78.8q-2.302-2.301-6.672-2.948a25.564 25.564 0 0 0-3.728-.252q-2.508 0-4.229.55a6.539 6.539 0 0 0-1.771.85q-3.6 2.6-4.9 7-.934 3.163-1.197 8.598A95.684 95.684 0 0 0 486 97.2a60.798 60.798 0 0 0 .332 6.427A49.132 49.132 0 0 0 491 120.2q3.45 7.188 12.686 14.995a112.636 112.636 0 0 0 8.114 6.205 134.147 134.147 0 0 0 5.031 3.202q3.569 2.156 6.821 3.775a62.149 62.149 0 0 0 6.248 2.723 45.331 45.331 0 0 0 6.136 1.767A53.203 53.203 0 0 0 547.2 154a15.489 15.489 0 0 0 .3-.003q.52-.01 1.238-.053a58.486 58.486 0 0 0 .662-.044q1.05-.075 1.65-.094a11.38 11.38 0 0 1 .35-.006 44.361 44.361 0 0 0 2.784-.247q9.427-1.132 20.216-6.353a61.544 61.544 0 0 0 4.667-2.53q14.688-8.837 15.733-22.07 0-.301.057-.941a40.115 40.115 0 0 1 .043-.459q.075-.751.094-1.163a5.322 5.322 0 0 0 .006-.237 31.76 31.76 0 0 0-2.615-12.261q-2.034-4.883-5.651-9.944A82.307 82.307 0 0 0 579 88.4q-10.8-11-25-19.8a384.086 384.086 0 0 1-1.738-1.081q-24.959-15.622-30.961-24.888A9.949 9.949 0 0 1 519.4 37.4q0-2.32 3.051-4.7a21.446 21.446 0 0 1 2.049-1.4 32.576 32.576 0 0 1 3.488-1.822q2.175-.984 4.799-1.859A76.336 76.336 0 0 1 538.4 26q6-1.4 7.8-1.4 3.4 0 10 3.2a52.993 52.993 0 0 1 1.601.833q1.503.817 2.446 1.487a8.707 8.707 0 0 1 .853.68 11.427 11.427 0 0 1 .381.37q.964.978 2.606 2.992A133.896 133.896 0 0 1 565.4 35.8a79.873 79.873 0 0 0 1.71 2.159q4.206 5.114 7.105 6.616a4.829 4.829 0 0 0 2.185.625 13.458 13.458 0 0 0 6.385-1.579A16.822 16.822 0 0 0 586.8 40.6a9.848 9.848 0 0 0 2.578-4.531 13.527 13.527 0 0 0 .422-3.469 16.421 16.421 0 0 0-.696-4.626A22.767 22.767 0 0 0 587.6 24.2a6.632 6.632 0 0 0-.327-.522q-1.292-1.883-5.373-5.878-2.937-2.875-5.523-5.047A59.895 59.895 0 0 0 573.4 10.4a69.874 69.874 0 0 0-.691-.511q-5.179-3.786-10.359-6.093A39.414 39.414 0 0 0 546.2.2Zm744.6 0a15.212 15.212 0 0 0-.269.003q-1.648.029-5.331.397a42.768 42.768 0 0 0-3.272.487q-3.211.601-6.759 1.724A83.3 83.3 0 0 0 1268.4 5.3a96.561 96.561 0 0 0-4.048 1.785q-6.615 3.108-10.952 6.515a42.688 42.688 0 0 0-2.606 2.286A30.321 30.321 0 0 0 1240.8 38.6a31.022 31.022 0 0 0 .575 5.882 38.243 38.243 0 0 0 2.225 7.318q1.913 4.388 5.154 8.712a62.61 62.61 0 0 0 5.846 6.688 49.48 49.48 0 0 0 3.144 2.855q6.291 5.286 18.256 12.745a401.28 401.28 0 0 1 4.576 2.869q20.144 12.823 28.543 21.825a30.872 30.872 0 0 1 4.481 5.906q1.4 2.6 1.4 5.2 0 7.6-11.6 11.6-3.4 1-6.6 1-9.8 0-23.2-8a44.293 44.293 0 0 1-2.215-1.42 48.445 48.445 0 0 1-8.785-7.78 37.062 37.062 0 0 1-3.771-4.833A27.881 27.881 0 0 1 1254.6 98.6a74.257 74.257 0 0 1-.133-.825q-.267-1.721-.267-2.375 0-.4.8-6a58.137 58.137 0 0 0 .152-.843q.29-1.684.392-2.93a15.121 15.121 0 0 0 .056-1.227 7.386 7.386 0 0 0-.891-3.508 10.031 10.031 0 0 0-1.509-2.092q-2.302-2.301-6.672-2.948a25.564 25.564 0 0 0-3.728-.252q-2.508 0-4.229.55a6.539 6.539 0 0 0-1.771.85q-3.6 2.6-4.9 7-.934 3.163-1.197 8.598a95.684 95.684 0 0 0-.103 4.602 60.798 60.798 0 0 0 .332 6.427 49.132 49.132 0 0 0 4.668 16.573q3.45 7.188 12.686 14.995a112.636 112.636 0 0 0 8.114 6.205 134.147 134.147 0 0 0 5.031 3.202q3.569 2.156 6.821 3.775a62.149 62.149 0 0 0 6.248 2.723 45.331 45.331 0 0 0 6.136 1.767A53.203 53.203 0 0 0 1291.8 154a15.489 15.489 0 0 0 .3-.003q.52-.01 1.238-.053a58.486 58.486 0 0 0 .662-.044q1.05-.075 1.65-.094a11.38 11.38 0 0 1 .35-.006 44.361 44.361 0 0 0 2.784-.247q9.427-1.132 20.216-6.353a61.544 61.544 0 0 0 4.667-2.53q14.688-8.837 15.733-22.07 0-.301.057-.941a40.115 40.115 0 0 1 .043-.459q.075-.751.094-1.163a5.322 5.322 0 0 0 .006-.237 31.76 31.76 0 0 0-2.615-12.261q-2.034-4.883-5.651-9.944a82.307 82.307 0 0 0-7.734-9.195q-10.8-11-25-19.8a384.086 384.086 0 0 1-1.738-1.081q-24.959-15.622-30.961-24.888A9.949 9.949 0 0 1 1264 37.4q0-2.32 3.051-4.7a21.446 21.446 0 0 1 2.049-1.4 32.576 32.576 0 0 1 3.488-1.822q2.175-.984 4.799-1.859A76.336 76.336 0 0 1 1283 26q6-1.4 7.8-1.4 3.4 0 10 3.2a52.993 52.993 0 0 1 1.601.833q1.503.817 2.446 1.487a8.707 8.707 0 0 1 .853.68 11.427 11.427 0 0 1 .381.37q.964.978 2.606 2.992A133.896 133.896 0 0 1 1310 35.8a79.873 79.873 0 0 0 1.71 2.159q4.206 5.114 7.105 6.616a4.829 4.829 0 0 0 2.185.625 13.458 13.458 0 0 0 6.385-1.579 16.822 16.822 0 0 0 4.015-3.021 9.848 9.848 0 0 0 2.578-4.531 13.527 13.527 0 0 0 .422-3.469 16.421 16.421 0 0 0-.696-4.626 22.767 22.767 0 0 0-1.504-3.774 6.632 6.632 0 0 0-.327-.522q-1.292-1.883-5.373-5.878-2.937-2.875-5.523-5.047A59.895 59.895 0 0 0 1318 10.4a69.874 69.874 0 0 0-.691-.511q-5.179-3.786-10.359-6.093A39.414 39.414 0 0 0 1290.8.2ZM717.4 65.8l-3-4v6.4q0 33.85-1.586 50.453a171.036 171.036 0 0 1-.014.147q-.754 9.047-1.849 14.343a37.814 37.814 0 0 1-.751 3.057 24.096 24.096 0 0 1-1.257 3.364q-.791 1.691-1.785 2.976a11.467 11.467 0 0 1-1.558 1.66 9.989 9.989 0 0 1-4.066 1.878 14.429 14.429 0 0 1-3.134.322q-6.8 0-11-4.6-1.077-1.231-1.503-2.047a3.132 3.132 0 0 1-.197-.453 3.412 3.412 0 0 1-.117-.504q-.142-.85-.174-2.544a56.093 56.093 0 0 1-.009-1.052 135.169 135.169 0 0 1 .077-4.11q.273-8.74 1.523-27.49 1.8-29 1.8-46.4V45.8q0-7.103-1.001-11.203a17.706 17.706 0 0 0-.399-1.397 69.868 69.868 0 0 1-.546-1.791q-.74-2.564-.839-3.845A4.757 4.757 0 0 1 686 27.2q0-.806.271-1.883a15.494 15.494 0 0 1 .329-1.117 10.655 10.655 0 0 1 4.873-6.518q1.829-1.17 4.298-1.984a30.213 30.213 0 0 1 3.429-.898 8.999 8.999 0 0 1 1.149-.242q.601-.089 1.301-.128a20.758 20.758 0 0 1 1.15-.03 8.993 8.993 0 0 1 2.228.307q2.095.538 4.697 2.018a32.867 32.867 0 0 1 .475.275q2.6 1.6 11.4 10.4t12.2 13.2q8.2 11 24.2 43 9.447 19.079 11.002 20.488a.348.348 0 0 0 .198.112.689.689 0 0 0 .18-.444q.733-3.106 2.92-27.956a2457.221 2457.221 0 0 0 1.144-13.387q1.07-12.968 1.688-22.48A616.274 616.274 0 0 0 775.6 32q.587-12.334 1.941-14.702a2.402 2.402 0 0 1 .059-.098 9.728 9.728 0 0 1 2.713-2.691 11.408 11.408 0 0 1 .487-.309q2-1 5.2-1 2.2 0 5.4.8a10.754 10.754 0 0 1 6.715 5.438 13.519 13.519 0 0 1 .285.562 16.055 16.055 0 0 1 1.991 7.419 19.019 19.019 0 0 1 .009.581q0 .884-.217 1.334a.965.965 0 0 1-.183.266 1.235 1.235 0 0 0-.178.058q-.547.23-.022.842a4.778 4.778 0 0 1 .164.202q.406.529.236.698-.349.524-1.155 12.616a1146.46 1146.46 0 0 0-.245 3.784 1667.105 1667.105 0 0 1-1.995 24.932q-1.142 13.103-2.586 27.675a2807.591 2807.591 0 0 1-.419 4.193q-1.252 13.239-1.705 21.997A246.789 246.789 0 0 0 792 128.6q-.157 10.044-2.284 15.408a14.487 14.487 0 0 1-1.316 2.592 14.222 14.222 0 0 1-3.922 3.798q-1.735 1.159-3.957 2.048a29.481 29.481 0 0 1-2.121.754 19.661 19.661 0 0 1-1.62.549q-.785.225-1.48.338a8.135 8.135 0 0 1-1.3.113q-2.552 0-5.934-2.658a25.357 25.357 0 0 1-.666-.542 35.355 35.355 0 0 1-4.219-3.922q-3.29-3.559-6.581-8.678a127.204 127.204 0 0 1-3.513-5.843q-3.664-6.439-8.185-15.663a495.244 495.244 0 0 1-1.502-3.094q-15.833-32.347-23.55-44.405a65.316 65.316 0 0 0-2.45-3.595Zm484-56.4h2.4q3.6.6 5.9 3.3 2.3 2.7 2.3 6.3a9.355 9.355 0 0 1-4.041 7.847q-1.49 1.112-3.531 1.977A22.85 22.85 0 0 1 1204 29q-3 1.2-8.6 1.4-5.6.2-32.2.2-27 0-28.2.6-.365.366-.397 1.232a4.623 4.623 0 0 0-.003.168q0 1.2.6 6.2.49 3.268 1.247 12.541a957.945 957.945 0 0 1 .353 4.459q.393 9.634.98 10.377a.262.262 0 0 0 .02.023q.349.349 13.637.394a1246.671 1246.671 0 0 0 4.163.006h3a459.09 459.09 0 0 1 2.463.006q3.487.019 5.737.094a372.997 372.997 0 0 1 2.419.089q2.156.086 4.781.211a50.247 50.247 0 0 1 2.459.174q2.522.245 4.241.726 2.5.7 5 1.8 2.262.996 3.542 2.482a7.079 7.079 0 0 1 .258.318 7.31 7.31 0 0 1 1.356 3.066A9.275 9.275 0 0 1 1191 76.6V78a10.057 10.057 0 0 1-3.513 7.673A17.443 17.443 0 0 1 1184.2 88q-1.354.677-3.996.781a25.514 25.514 0 0 1-1.004.019q-4.8 0-9-.2-9.405-.33-12.004-.66a5.953 5.953 0 0 1-.796-.14q-.794-.264-1.325-.092a1.179 1.179 0 0 0-.475.292q-.8.6-5.6 0-7.359-.566-8.309-.598a2.838 2.838 0 0 0-.091-.002h-2a3.774 3.774 0 0 0-1.195.199 4.593 4.593 0 0 0-.005.001q-.332.111-.511.283a.656.656 0 0 0-.189.317q-.075.302-.321.831a14.482 14.482 0 0 1-.179.369 18.772 18.772 0 0 0-1.465 4.175q-.459 1.987-.632 4.312a39.45 39.45 0 0 0-.103 2.913 8.641 8.641 0 0 0 .014.478q.024.422.086.922a15.021 15.021 0 0 1 .061.572q.024.283.034.536a8.079 8.079 0 0 1 .005.292 73.788 73.788 0 0 0 .822 6.598 92.022 92.022 0 0 0 .878 4.502 76.693 76.693 0 0 0 .432 1.86q1.006 4.074 1.668 4.24.523.175 15.813.501a3511.549 3511.549 0 0 0 4.787.099q45.962.549 53.866 5.793a4.707 4.707 0 0 1 1.134 1.007 3.281 3.281 0 0 1 .546.98q.654 1.729.654 5.42a25.336 25.336 0 0 1-.156 2.91q-.169 1.46-.522 2.667a10.262 10.262 0 0 1-.922 2.223q-2 3.4-3.6 4.4-1.266.791-4.161.957a28.879 28.879 0 0 1-1.639.043h-2.2q-10.6 0-21.6-.8-25.358-1.317-37.972-1.55a264.631 264.631 0 0 0-4.828-.05q-5.6 0-8.4.4a219.385 219.385 0 0 1-.966.136q-1.647.228-2.115.259a1.877 1.877 0 0 1-.119.005 4.816 4.816 0 0 1-.7-.06q-1.119-.168-3.072-.799a49.102 49.102 0 0 1-.428-.141q-6.8-2.6-8.2-7.4-.2-.4-.2-3a64.44 64.44 0 0 1 .056-2.395q.225-5.818 1.345-19.921a1821.005 1821.005 0 0 1 .199-2.484 1572.868 1572.868 0 0 0 .544-6.905q.972-12.738 1.049-17.191a40.97 40.97 0 0 0 .007-.704q0-1.95-.132-2.712a2.034 2.034 0 0 0-.068-.288q-.4-2.4-.4-7.6a147.731 147.731 0 0 0-.15-3.145q-.289-5.131-1.044-14.806a2101.982 2101.982 0 0 0-.506-6.349q-1.437-17.72-1.864-20.485a8.328 8.328 0 0 0-.036-.215 20.16 20.16 0 0 1-.538-3.447 24.43 24.43 0 0 1-.062-1.753q0-3 .6-4.8a13.324 13.324 0 0 1 1.373-3.169q.807-1.377 1.987-2.768a26.855 26.855 0 0 1 1.24-1.363q3.6-3.7 7.4-5.1a9.222 9.222 0 0 1 2.6-.579 8.552 8.552 0 0 1 .6-.021q2.133 0 7.364 1.077A160.668 160.668 0 0 1 1138 8.2q11.4 2.4 24 2.4 6.798 0 17.118-.48a717.174 717.174 0 0 0 2.482-.12q12.2-.6 19.8-.6Zm-925.8 141h-1a28.912 28.912 0 0 1-9.593-1.559 26.492 26.492 0 0 1-4.807-2.241 14.63 14.63 0 0 1-2.142-1.421q-2.054-1.608-4.514-4.376A67.405 67.405 0 0 1 252 139q-4.8-5.8-8.6-12.6a43.89 43.89 0 0 1-1.152-2.408q-1.878-4.202-4.809-12.23A485.687 485.687 0 0 1 236.8 110q-4.6-13.4-5.4-14.2a1.361 1.361 0 0 0-.506-.228q-1.819-.552-9.694-1.372-6.909-.72-12.161-.921a100.338 100.338 0 0 0-3.839-.079q-13 0-15.4 2.6a4.641 4.641 0 0 0-.679 1.16q-1.388 3.118-3.221 12.84a175.133 175.133 0 0 0-1.908 12.455 134.338 134.338 0 0 0-.792 10.145 129.351 129.351 0 0 1-.227 3.548q-.381 4.82-1.027 7.094a11.151 11.151 0 0 1-.046.158 10.597 10.597 0 0 1-2.877 4.638 13.024 13.024 0 0 1-.623.562 11.565 11.565 0 0 1-6.258 2.523 15.095 15.095 0 0 1-1.542.077q-3.4 0-6.6-1.6a7.326 7.326 0 0 1-2.929-2.293q-1.023-1.38-1.334-3.31A11.277 11.277 0 0 1 159.6 142q0-.174.605-9.881A21583.97 21583.97 0 0 1 160.4 129q.459-7.503 1.388-13.482A94.023 94.023 0 0 1 162.4 112q.4-1.8.7-3.4.238-1.268.287-2.033a5.738 5.738 0 0 0 .013-.367v-1l-3.6 1.2q-2.4 1-8.2 1a54.296 54.296 0 0 1-2.719-.063q-3.212-.162-5.081-.737a16.598 16.598 0 0 1-4.564-2.08 14.37 14.37 0 0 1-3.136-2.82q-2.9-3.5-2.9-7.9v-1.2q.2-3.2 2.4-5.4 2.2-1.8 4.4-1.8 1.682 0 4.769.702a66.488 66.488 0 0 1 2.031.498 55.114 55.114 0 0 0 2.824.633q2.72.529 4.698.565a15.626 15.626 0 0 0 .278.002q2.6 0 4.9-1a23.617 23.617 0 0 0 1.33-.625q1.323-.676 2.143-1.353A6.982 6.982 0 0 0 163 84.8a106.267 106.267 0 0 0 .7-.589q1.238-1.051 3.5-3.011l4.6-4.2 4.6-13q6.48-17.674 9.876-26.092a266.472 266.472 0 0 1 .124-.308q5.399-13.136 6.264-16.558a7.118 7.118 0 0 0 .136-.642q1.986-8.177 6.086-12.601A15.662 15.662 0 0 1 205.8 3.4q1.518-.506 4.317-.585A38.321 38.321 0 0 1 211.2 2.8a38.89 38.89 0 0 1 2.301.063q2.718.162 4.299.737a15.657 15.657 0 0 1 6.66 4.267q1.829 1.914 3.383 4.568A34.641 34.641 0 0 1 229.2 15a189.906 189.906 0 0 1 4.454 10.612q6.797 17.414 17.457 50.712A2581.656 2581.656 0 0 1 258 98.2q6.4 21.4 8 24a21.109 21.109 0 0 0 3.82 5.13 17.219 17.219 0 0 0 6.78 4.07q2.616.769 4.166.947a7.408 7.408 0 0 0 .834.053q1.349 0 2.769.995a8.604 8.604 0 0 1 .531.405 9.417 9.417 0 0 1 1.16 1.124q.605.704.96 1.453a5.45 5.45 0 0 1 .18.423 4.603 4.603 0 0 1 .226.772q.174.84.174 2.028a9.364 9.364 0 0 1-2.697 6.609 12.829 12.829 0 0 1-.703.691 13.299 13.299 0 0 1-6.411 3.196 17.477 17.477 0 0 1-2.189.304Zm778.6-123-14.6-.4-.8 4.6q-.746 4.775-.936 11.22a156.084 156.084 0 0 0-.064 4.58q0 12.2 1.6 29.2 3.8 38.8 4.4 58a146.581 146.581 0 0 1 .186 5.797 169.797 169.797 0 0 1 .014 2.203 17.481 17.481 0 0 1-.117 2.094q-.258 2.131-1.083 3.506-2.8 5.8-11.2 5.8a16.718 16.718 0 0 1-2.641-.2 13.576 13.576 0 0 1-1.759-.4 12.361 12.361 0 0 1-5.959-3.359 14.702 14.702 0 0 1-.041-.041q-3-3-4.2-7.1-.918-3.135-1.368-9.254a135.856 135.856 0 0 1-.232-4.046q-1.171-19.907-3.866-49.527a2809.315 2809.315 0 0 0-.134-1.473q-2.909-31.66-4.061-41.355A117.863 117.863 0 0 0 1007 34.6l-1-7.4-12.8.4q-7.6.2-16 .2-6.4 0-9-.8-8.932-2.605-9.554-10.404a15.05 15.05 0 0 1-.046-1.196v-1.6a15.647 15.647 0 0 1 2.051-6.283q2.097-3.484 6.188-5.451A21.487 21.487 0 0 1 970.2.8q3.208-.755 43.267-.797A4633.835 4633.835 0 0 1 1018.4 0a2415.994 2415.994 0 0 1 19.193.07q36.06.288 45.589 1.756A27.916 27.916 0 0 1 1084.2 2q8.8 1.8 11 4.2 2.2 2.6 2.2 9.6 0 2.8-.6 5.2a9.928 9.928 0 0 1-2.976 4.828q-1.549 1.435-3.824 2.572-1.381.789-3.345.8a9.934 9.934 0 0 1-.055 0 20.903 20.903 0 0 1-.844-.021q-2.112-.088-7.16-.543a522.287 522.287 0 0 1-.396-.036 648.963 648.963 0 0 0-20.912-1.094 714.749 714.749 0 0 0-3.088-.106ZM54 104.4l-2.2-.4-.4 7.4a338.41 338.41 0 0 1-.809 11.583Q48.55 146.038 44 151.4a8.606 8.606 0 0 1-5.224 2.676A12.216 12.216 0 0 1 37 154.2a14.811 14.811 0 0 1-10.987-4.741 19.84 19.84 0 0 1-.613-.659 10.904 10.904 0 0 1-1.61-2.202 7.85 7.85 0 0 1-.99-3.798 16.667 16.667 0 0 1 .056-1.195q.244-3.23 1.544-12.005a103.582 103.582 0 0 0 .844-6.875Q26 114.475 26 103.2q0-8.6-.6-14-.8-8.2-4.6-29a1414.35 1414.35 0 0 0-1.334-7.202q-2.332-12.404-3.376-16.376a22.263 22.263 0 0 0-.29-1.022.3.3 0 0 0-.206-.191q-.465-.155-1.893.391a18.024 18.024 0 0 0-.501.2 9.086 9.086 0 0 1-2.351.78q-1.048.203-2.245.219A15.435 15.435 0 0 1 8.4 37a9.815 9.815 0 0 1-3.13-.473A7.765 7.765 0 0 1 1 33q-.759-1.517-.942-2.804A5.648 5.648 0 0 1 0 29.4a10.067 10.067 0 0 1 2.038-5.855q2.533-3.587 8.215-7.047A62.507 62.507 0 0 1 14.8 14q11-5.6 25.6-7 3-.4 11.4-.4 16 0 22.2 1.4 11.4 2.4 20.4 7.8 7.613 4.35 14.239 13.135A73.024 73.024 0 0 1 110 30.8a51.659 51.659 0 0 1 4.758 8.143q2.764 6 3.242 11.857.368 3.683.397 5.331a15.212 15.212 0 0 1 .003.269 40.313 40.313 0 0 1-13.921 30.539q-5.622 5.212-13.515 9.653A97.669 97.669 0 0 1 87.2 98.6a212.794 212.794 0 0 1-3.872 1.847q-5.344 2.477-8.073 3.28a17.293 17.293 0 0 1-.255.073q-3.6 1-10.8 1-7.8 0-10.2-.4Zm763.2 10.2-2.2-6.2V94.6a273.25 273.25 0 0 1 .066-6.245q.215-9.374 1.134-13.355 5.4-25.6 24.2-45.2 11.2-11.2 17.8-15.2a26.859 26.859 0 0 1 4.105-1.988q4.446-1.747 11.048-3.008A110.227 110.227 0 0 1 875.6 9.2q3.016-.452 4.781-.564A16.406 16.406 0 0 1 881.4 8.6a20.547 20.547 0 0 1 .558.007q1.117.031 1.442.193 1.17.334 3.179-.03a17.73 17.73 0 0 0 .821-.17 13.89 13.89 0 0 1 1.69-.318 10.853 10.853 0 0 1 1.31-.082 25.637 25.637 0 0 1 6.701.957Q902.263 10.556 908.2 14a24.005 24.005 0 0 1 2.521 1.707q2.523 1.928 5.568 5.042A89.157 89.157 0 0 1 917.3 21.8a94.519 94.519 0 0 1 5.151 5.894A72.934 72.934 0 0 1 926.2 32.8a119.951 119.951 0 0 1 3.684 6.099q3.141 5.539 6.516 12.601a178.181 178.181 0 0 1 2.721 5.953Q942.194 64.544 943.2 69a13.907 13.907 0 0 1 .312 1.657q.378 2.772.463 8.185A214.491 214.491 0 0 1 944 82.2a212.603 212.603 0 0 1-.062 5.343q-.183 7.239-.905 10.702a18.625 18.625 0 0 1-.033.155 56.454 56.454 0 0 1-7.485 16.704q-4.39 6.771-10.915 13.296a151.916 151.916 0 0 1-8.151 7.608q-4.235 3.653-8.199 6.413a67.385 67.385 0 0 1-6.05 3.779 61 61 0 0 1-19.145 6.847A84.18 84.18 0 0 1 867.6 154.4a53.848 53.848 0 0 1-9.009-.732 47.987 47.987 0 0 1-2.391-.468 54.296 54.296 0 0 1-13.002-4.649A43.298 43.298 0 0 1 831.9 140.2a56.656 56.656 0 0 1-8.667-11.803q-3.135-5.593-5.543-12.38a97.449 97.449 0 0 1-.49-1.417ZM879 120l5-3.6h8.8q8.056 0 10.984-1.122a5.302 5.302 0 0 0 .616-.278 15.763 15.763 0 0 0 4.534-3.295q3.466-3.713 3.466-9.505 0-4.4-2.4-8.8a23.675 23.675 0 0 0-2.123-3.406q-2.478-3.368-6.736-7.294a90.44 90.44 0 0 0-1.441-1.3 84.359 84.359 0 0 0-4.627-3.82q-4.885-3.73-8.873-5.38a16.164 16.164 0 0 0-3.47-.936q-1.603-.256-3.413-.264a26.51 26.51 0 0 0-.117 0 18.769 18.769 0 0 0-1.909.092q-1.394.142-2.491.508a19.981 19.981 0 0 0-6.318 3.81q-2.347 2.034-4.545 4.938A50.096 50.096 0 0 0 860.6 85.4q-6.4 11-6.4 21.4a29.485 29.485 0 0 0 .449 5.32q.552 3.005 1.783 5.362a14.395 14.395 0 0 0 2.368 3.318 17.226 17.226 0 0 0 2.583 2.152q1.64 1.097 3.313 1.543a8.913 8.913 0 0 0 2.304.305 12.613 12.613 0 0 0 3.408-.517q3.755-1.058 8.592-4.283ZM72.6 45.8a10.81 10.81 0 0 0-4.652-1.534A13.494 13.494 0 0 0 66.6 44.2a38.334 38.334 0 0 0-1.909.044q-2.792.14-4.027.725A3.37 3.37 0 0 0 60.6 45a36.469 36.469 0 0 0-10.893 7.084A33.185 33.185 0 0 0 43.4 60.4a17.546 17.546 0 0 0-1.982 7.545 20.662 20.662 0 0 0-.018.855 25.599 25.599 0 0 0 .062 1.856q.188 2.569.938 3.844 1 1.7 4 3.3a9.854 9.854 0 0 0 3.899 1.011q.731.04 1.501-.011 5.8-.8 8.6-.8a7.068 7.068 0 0 1 1.396.158q1.442.294 3.43 1.133A38.452 38.452 0 0 1 66.8 80a36.675 36.675 0 0 0 2.475 1.133q2.412.989 4.18 1.206a7.765 7.765 0 0 0 .945.061 10.013 10.013 0 0 0 3.21-.505 9.234 9.234 0 0 0 1.19-.495 9.389 9.389 0 0 0 5.723-6.578q.47-1.775.477-3.953a20.56 20.56 0 0 0 0-.069 25.025 25.025 0 0 0-1.009-6.845Q82.917 60.174 80.7 56.1a58.529 58.529 0 0 0-2.249-3.809q-3.06-4.728-5.851-6.491Zm820.2-6.4a12.37 12.37 0 0 0-2.062-.82 9.036 9.036 0 0 0-2.538-.38 8.942 8.942 0 0 0-5.986 2.316q-1.22 1.053-2.314 2.584a19.374 19.374 0 0 0-3.152 7.322 26.468 26.468 0 0 0-.548 4.778q0 4.89 1.751 8.203A11.63 11.63 0 0 0 879.2 65.3a9.771 9.771 0 0 0 7.166 3.662A13.726 13.726 0 0 0 887.4 69a11.224 11.224 0 0 0 5.102-1.262A15.35 15.35 0 0 0 894.8 66.3a13.772 13.772 0 0 0 2.652-2.573A10.886 10.886 0 0 0 899.4 59.8q.6-2.2.6-4.4 0-4.8-2.1-9.5a21.456 21.456 0 0 0-1.4-2.654q-.845-1.345-1.802-2.325A9.47 9.47 0 0 0 892.8 39.4Zm-30.2 6Q859.8 44 857 44a7.922 7.922 0 0 0-6.015 2.618 10.526 10.526 0 0 0-.585.682 11.576 11.576 0 0 0-2.102 4.377Q847.8 53.638 847.8 56a23.453 23.453 0 0 0 .842 6.415A18.925 18.925 0 0 0 851.9 68.9a16.647 16.647 0 0 0 2.76 2.852 10.568 10.568 0 0 0 6.74 2.448 11.321 11.321 0 0 0 3.586-.595A12.58 12.58 0 0 0 865 73.6q3.2-1.4 5.4-4.9 2.2-3.5 2.2-7.7 0-3.4-1.6-6.4a17.196 17.196 0 0 0-1.104-1.874q-.621-.925-1.428-1.925A39.259 39.259 0 0 0 867.1 49.2a32.717 32.717 0 0 0-1.294-1.362q-1.336-1.323-2.409-2.004a6.191 6.191 0 0 0-.797-.434ZM198.4 71.6V73q0 8.2 5.6 8.2a7.065 7.065 0 0 0 1.703-.231q1.929-.482 4.497-1.969a10.898 10.898 0 0 1 3.579-1.452q1.575-.348 3.421-.348a20.916 20.916 0 0 0 2.891-.184q3.237-.453 4.826-2.028a4.877 4.877 0 0 0 .883-1.188q.8-1.4.8-3.6a8.37 8.37 0 0 0-.473-2.836 7.785 7.785 0 0 0-.527-1.164 11.624 11.624 0 0 0-.791-1.328q-.905-1.329-2.403-2.938a42.372 42.372 0 0 0-.506-.534q-2.199-2.28-4.199-3.765A21.838 21.838 0 0 0 216.8 57a11.332 11.332 0 0 0-2.624-1.419A9.027 9.027 0 0 0 211 55a9.052 9.052 0 0 0-6.265 2.528q-1.227 1.119-2.312 2.733a19.733 19.733 0 0 0-.223.339 26.836 26.836 0 0 0-2.432 4.69 19.14 19.14 0 0 0-1.368 6.31ZM917.6 57a6.573 6.573 0 0 0-1.942-.859q-.865-.234-1.892-.308a13.574 13.574 0 0 0-.966-.033 13.828 13.828 0 0 0-1.669.095q-1.481.18-2.531.705-1.998.856-3.944 3.087A22.779 22.779 0 0 0 903.1 61.7a26.739 26.739 0 0 0-2.472 4.357A21.663 21.663 0 0 0 899.4 69.6q-.166.665-.194 1.884a22.494 22.494 0 0 0-.006.516q0 4.6 3 7.9a9.918 9.918 0 0 0 6.486 3.22 13.841 13.841 0 0 0 1.514.08q1.6 0 2.6-.2 3.2-.8 5.9-3.2a12.758 12.758 0 0 0 2.085-2.34 9.965 9.965 0 0 0 1.415-3.06q.6-2.2.6-4.6a25.541 25.541 0 0 0-.367-4.492q-.444-2.478-1.424-4.378A10.598 10.598 0 0 0 917.6 57Zm-71.8 13.2a11.558 11.558 0 0 0-2.7-.97A9.801 9.801 0 0 0 841 69a7.731 7.731 0 0 0-3.023.569q-2.051.862-3.377 3.031a7.118 7.118 0 0 0-1.005 2.183q-.268.959-.354 2.101A14.869 14.869 0 0 0 833.2 78a21.896 21.896 0 0 0 1.232 7.475A19.19 19.19 0 0 0 839 92.6a10.843 10.843 0 0 0 3.829 2.532 10.534 10.534 0 0 0 3.771.668q5.02 0 7.793-4.045a12.881 12.881 0 0 0 .807-1.355 9.086 9.086 0 0 0 .78-2.351q.203-1.048.219-2.245a15.435 15.435 0 0 0 .001-.204 15.815 15.815 0 0 0-.372-3.5 12.76 12.76 0 0 0-1.028-2.9q-3.2-5.8-9-9Zm180-35.2h.2q.307.154.497.189a.564.564 0 0 0 .103.011q3.904 0 5.14-3.238a6.738 6.738 0 0 0 .06-.162 5.286 5.286 0 0 0 .431-1.257q.126-.588.158-1.272a10.101 10.101 0 0 0 .011-.471 16.872 16.872 0 0 0-.395-3.541q-.349-1.625-1.005-3.359-.988-2.612-2.276-4.277a9.249 9.249 0 0 0-1.124-1.223 7.889 7.889 0 0 0-1.723-1.065 6.047 6.047 0 0 0-2.477-.535q-4.158 0-8.152 3.431a21.832 21.832 0 0 0-.848.769 21.328 21.328 0 0 0-2.211 2.217q-2.565 3.017-2.589 5.929a6.67 6.67 0 0 0 0 .054 5.547 5.547 0 0 0 .165 1.394A3.844 3.844 0 0 0 1011 30.6q1.189 1.02 3.966 1.173a18.768 18.768 0 0 0 1.034.027q3.6 0 6.2 1.4a113.146 113.146 0 0 0 1.131.601q1.404.736 2.171 1.073a9.627 9.627 0 0 0 .298.126Zm-935-2a14.387 14.387 0 0 0-.203-2.496Q90.195 28.227 89 26.7a5.714 5.714 0 0 0-4.157-2.272 7.346 7.346 0 0 0-.643-.028q-2.8 0-5.2 1.6-2.8 1.8-4.9 5.2a15.756 15.756 0 0 0-1.36 2.73Q72 35.9 72 37.8a10.724 10.724 0 0 0 .349 2.806A8.054 8.054 0 0 0 74.2 44q2.2 2.4 5.8 2.4 9.804 0 10.708-11.043A28.924 28.924 0 0 0 90.8 33Zm-21.2-1.2q0-4.6-2.2-8.5a9.809 9.809 0 0 0-1.531-2.076A6.554 6.554 0 0 0 61.4 19.2q-2.394-.16-4.406 1.337A9.026 9.026 0 0 0 56 21.4a12.349 12.349 0 0 0-3.148 5.552q-.53 1.909-.629 4.18A24.459 24.459 0 0 0 52.2 32.2a13.226 13.226 0 0 0 .366 3.193A9.622 9.622 0 0 0 54.6 39.4q2.4 2.8 5.8 2.8 3.2 0 5.6-2.2 3.6-3 3.6-8.2Zm1089.864 12.405a12.581 12.581 0 0 0-2.864.795 22.176 22.176 0 0 0-2.435 1.296q-4.965 3.081-4.965 7.504 0 3.684 4.104 4.418a13.113 13.113 0 0 0 2.296.182q1.6 0 4 2.4 1.422 1.313 2.784 1.907a5.512 5.512 0 0 0 2.216.493 4.207 4.207 0 0 0 1.795-.384q1.559-.724 2.605-2.816a4.07 4.07 0 0 0 .312-.71q.488-1.435.488-4.09a28.524 28.524 0 0 0-.06-1.889q-.099-1.496-.363-2.772A13.236 13.236 0 0 0 1168.6 48a9.219 9.219 0 0 0-.515-.903Q1166.071 44 1162.2 44a17.353 17.353 0 0 0-2.736.205ZM98.6 44.4q-1.4-.8-3.6-.8-1.8 0-3.2.6a10.669 10.669 0 0 0-1.502.756q-.742.443-1.542 1.049A25.705 25.705 0 0 0 87.3 47.2a18.628 18.628 0 0 0-1.396 1.356Q84.55 50.025 84 51.4q-.8 1.6-.8 3.4 0 3.4 2.6 5.9 2.6 2.5 6.2 2.5a1.332 1.332 0 0 0 .118-.006q.197-.018.548-.087a12.804 12.804 0 0 0 .034-.007q.483-.096.686-.1a.865.865 0 0 1 .014 0 8.198 8.198 0 0 0 5.893-3.617A14.088 14.088 0 0 0 100.8 56.6a22.584 22.584 0 0 0 .738-1.902q.662-1.985.662-3.498 0-4.8-3.6-6.8ZM46.4 33q-1.6-1.4-3.8-1.4a5.37 5.37 0 0 0-4.466 2.217A9.15 9.15 0 0 0 37 35.8a14.275 14.275 0 0 0-.936 3.257q-.248 1.464-.263 3.121a23.79 23.79 0 0 0-.001.222 20.94 20.94 0 0 0 .098 2.094q.215 2.131.902 3.506a9.273 9.273 0 0 0 1.652 2.451Q40.519 52.6 43.8 52.6a6.907 6.907 0 0 0 2.363-.427A8.123 8.123 0 0 0 46.6 52q4.169-2.258 4.717-6.931A12.614 12.614 0 0 0 51.4 43.6a11.489 11.489 0 0 0-.479-3.2q-.379-1.31-1.059-2.688a20.359 20.359 0 0 0-.262-.512 33.726 33.726 0 0 0-.981-1.545Q47.406 33.863 46.4 33Zm497.4 19.6h-1.4q-3.945 0-4.353-2.894A5.06 5.06 0 0 1 538 49v-.4q.154-.307.189-.497A.564.564 0 0 0 538.2 48a9.607 9.607 0 0 1 3.694-5.751A15.041 15.041 0 0 1 544.6 40.6a16.257 16.257 0 0 1 1.354-.607q1.401-.546 2.466-.589a4.45 4.45 0 0 1 .18-.004 4.436 4.436 0 0 1 3.282 1.483q1.295 1.345 2.242 3.907a20.391 20.391 0 0 1 .076.21q1.2 3 1.2 4.6a5.038 5.038 0 0 1-.468 2.081q-.299.665-.788 1.329a9.136 9.136 0 0 1-.144.19 4.49 4.49 0 0 1-.935.839 3.325 3.325 0 0 1-1.865.561 4.308 4.308 0 0 1-.758-.077q-.801-.145-1.93-.563a24.525 24.525 0 0 1-.912-.36 20.156 20.156 0 0 0-1.271-.483q-1.196-.406-2.073-.493a4.623 4.623 0 0 0-.456-.024Zm744.6 0h-1.4q-3.945 0-4.353-2.894a5.06 5.06 0 0 1-.047-.706v-.4q.154-.307.189-.497a.564.564 0 0 0 .011-.103 9.607 9.607 0 0 1 3.694-5.751 15.041 15.041 0 0 1 2.706-1.649 16.257 16.257 0 0 1 1.354-.607q1.401-.546 2.466-.589a4.45 4.45 0 0 1 .18-.004 4.436 4.436 0 0 1 3.282 1.483q1.295 1.345 2.242 3.907a20.391 20.391 0 0 1 .076.21q1.2 3 1.2 4.6a5.038 5.038 0 0 1-.468 2.081q-.299.665-.788 1.329a9.136 9.136 0 0 1-.144.19 4.49 4.49 0 0 1-.935.839 3.325 3.325 0 0 1-1.865.561 4.308 4.308 0 0 1-.758-.077q-.801-.145-1.93-.563a24.525 24.525 0 0 1-.912-.36 20.156 20.156 0 0 0-1.271-.483q-1.196-.406-2.073-.493a4.623 4.623 0 0 0-.456-.024Zm-141.556 54.351a16.408 16.408 0 0 0-.844 2.649 74.257 74.257 0 0 0-.133.825q-.267 1.722-.267 2.375a6.061 6.061 0 0 0 .615 2.7 7.119 7.119 0 0 0 1.385 1.9q.736.736 1.397 1.021a2.027 2.027 0 0 0 .803.179 2.38 2.38 0 0 0 .476-.05q1.223-.249 2.724-1.75a5.986 5.986 0 0 1 2.031-1.316 8.478 8.478 0 0 1 1.769-.484 17.837 17.837 0 0 0 1.011-.172q1.256-.254 2.04-.639a3.264 3.264 0 0 0 .749-.489 2.628 2.628 0 0 0 .632-.877q.368-.809.368-2.023a5.159 5.159 0 0 0-.123-1.123q-.534-2.402-3.394-4.416a19.335 19.335 0 0 0-2.483-1.461 32.742 32.742 0 0 0-.341-.14q-2.132-.86-3.059-.86a5.042 5.042 0 0 0-4.076 1.962q-.73.892-1.28 2.189ZM758.462 49.533a13.216 13.216 0 0 0-.662.467 11.09 11.09 0 0 0-3.128 4.195 11.827 11.827 0 0 0-.872 4.605q0 1.028.108 1.625a2.738 2.738 0 0 0 .092.375 4.625 4.625 0 0 0 .417.873q.398.636.962.968A2.754 2.754 0 0 0 756.8 63a3.006 3.006 0 0 0 .053 0q.909-.016 2.685-.574A34.625 34.625 0 0 0 760.8 62a42.418 42.418 0 0 1 .19-.067Q763.641 61 764.8 61a9.474 9.474 0 0 0 .124-.001q3.262-.042 4.035-2.347A5.187 5.187 0 0 0 769.2 57q0-2.2-3.3-5.2a22.141 22.141 0 0 0-.76-.661q-2.821-2.339-4.94-2.339a1.148 1.148 0 0 0-.079.003q-.615.042-1.659.73ZM413.4 60.4q1.2-.6 2.2-.6 2.8 0 5.4 3a15.879 15.879 0 0 1 1.257 1.64q1.343 2.035 1.343 3.76a3.781 3.781 0 0 1-.339 1.659q-.936 1.941-4.461 1.941-1.822 0-3.137.339a6.389 6.389 0 0 0-1.263.461 7.178 7.178 0 0 1-1.017.486q-.831.314-1.583.314-3 0-3-4.4a9.211 9.211 0 0 1 .443-2.763q.343-1.095.952-2.228A15.275 15.275 0 0 1 410.2 64a12.745 12.745 0 0 1 .986-1.566q.573-.771 1.202-1.318a5.938 5.938 0 0 1 1.012-.716Zm-195.8-21a11.513 11.513 0 0 0-.853-.387q-.866-.348-1.513-.403a2.772 2.772 0 0 0-.234-.01q-2.297 0-3.953 2.381a9.258 9.258 0 0 0-.147.219 10.157 10.157 0 0 0-1.438 3.601 14.229 14.229 0 0 0-.262 2.799q0 2.394 1.082 3.896a4.889 4.889 0 0 0 .618.704 5.967 5.967 0 0 0 1.825 1.2 5.413 5.413 0 0 0 2.075.4 5.966 5.966 0 0 0 3.878-1.428A7.87 7.87 0 0 0 219.1 52a5.91 5.91 0 0 0 1.71-3.115A8.842 8.842 0 0 0 221 47a8.715 8.715 0 0 0-.211-1.846q-.27-1.248-.889-2.654-.863-1.962-1.788-2.753a2.536 2.536 0 0 0-.512-.347ZM204 43.2a5.61 5.61 0 0 0-3.093-1.346A7.495 7.495 0 0 0 200 41.8a5.547 5.547 0 0 0-1.394.166A3.844 3.844 0 0 0 196.6 43.2a4.41 4.41 0 0 0-.81 1.462q-.219.642-.315 1.428a10.823 10.823 0 0 0-.075 1.31 12.424 12.424 0 0 0 .361 3.089A8.299 8.299 0 0 0 198.6 55a6.837 6.837 0 0 0 1.225.743q.895.414 1.79.453a4.27 4.27 0 0 0 .185.004q3.374 0 4.748-2.822a8.44 8.44 0 0 0 .652-1.978 1.034 1.034 0 0 1 .012-.149q.022-.154.088-.351a2.608 2.608 0 0 0 .053-.178q.047-.184.047-.322a9.14 9.14 0 0 0-2.89-6.724 12.489 12.489 0 0 0-.51-.476Zm16.6 12.4v1.2a6.252 6.252 0 0 0 .679 1.935Q222.569 61 225.8 61a6.629 6.629 0 0 0 2.521-.458q1.94-.79 3.079-2.942a5.588 5.588 0 0 0 .512-1.634A7.437 7.437 0 0 0 232 54.8a9.554 9.554 0 0 0-.543-3.256 8.759 8.759 0 0 0-.857-1.744 5.745 5.745 0 0 0-.953-1.16A3.794 3.794 0 0 0 227 47.6q-1.8 0-3.6 1.8a10.579 10.579 0 0 0-1.747 2.255A7.882 7.882 0 0 0 220.6 55.6Zm-21.605 6.761A12.773 12.773 0 0 0 199 62a7.458 7.458 0 0 0-.947-3.589A10.688 10.688 0 0 0 196.8 56.6a9.273 9.273 0 0 0-1.414-1.371q-.987-.758-2.045-1.049A5.046 5.046 0 0 0 192 54a5.187 5.187 0 0 0-1.652.241q-2.304.774-2.347 4.035a9.474 9.474 0 0 0-.001.124 12.195 12.195 0 0 0 .308 2.829q.52 2.183 1.921 3.663a7.585 7.585 0 0 0 .771.708 4.964 4.964 0 0 0 3.026 1.189 6.396 6.396 0 0 0 .374.011 4.637 4.637 0 0 0 2.21-.514q.963-.512 1.655-1.533a6.899 6.899 0 0 0 .535-.953q.169-.506.195-1.439ZM995.422 9.866A1.628 1.628 0 0 0 995 9.8q-1.718 0-3.255 2.37a11.599 11.599 0 0 0-.145.23 11.476 11.476 0 0 0-1.135 2.397A8.857 8.857 0 0 0 990 17.6a1.19 1.19 0 0 0 .008.128q.014.127.052.302a5.828 5.828 0 0 0 .04.17q.079.316.096.507a1.081 1.081 0 0 1 .004.093q.295 1.083.833 1.633A1.837 1.837 0 0 0 992.4 21a2.277 2.277 0 0 0 .452-.055q.721-.15 2.015-.708A30.808 30.808 0 0 0 995.4 20q2.2-1 3.2-1a4.17 4.17 0 0 0 1.201-.165A3.28 3.28 0 0 0 1001.2 18a2.949 2.949 0 0 0 .518-.683A2.319 2.319 0 0 0 1002 16.2q0-2-3.2-4.4-2.293-1.637-3.378-1.934ZM1030.6 16.4h.8q2.151 0 4.014-1.911a9.402 9.402 0 0 0 .086-.089 7.01 7.01 0 0 0 1.418-2.132 6.351 6.351 0 0 0 .482-2.468 5.644 5.644 0 0 0-.249-1.714A4.598 4.598 0 0 0 1036 6.2a2.699 2.699 0 0 0-1.923-.799A3.543 3.543 0 0 0 1034 5.4a4.984 4.984 0 0 0-2.12.5q-1.176.549-2.38 1.7a8.133 8.133 0 0 0-1.446 1.81 6.287 6.287 0 0 0-.854 3.19 3.925 3.925 0 0 0 .34 1.678q.719 1.538 2.952 2.096a8.196 8.196 0 0 0 .108.026Zm-5.4-13.2a4.49 4.49 0 0 0-.935-.839 3.325 3.325 0 0 0-1.865-.561 4.624 4.624 0 0 0-3.356 1.357 5.506 5.506 0 0 0-.044.043 5.788 5.788 0 0 0-1.443 2.489q-.268.898-.335 1.974a11.878 11.878 0 0 0-.022.737 7.651 7.651 0 0 0 .111 1.351q.133.741.425 1.322a3.557 3.557 0 0 0 .664.927 4.182 4.182 0 0 0 1.235.871 3.758 3.758 0 0 0 1.565.329 4.624 4.624 0 0 0 3.356-1.356 5.506 5.506 0 0 0 .044-.044 4.44 4.44 0 0 0 1.336-2.156q.214-.736.255-1.625a9.258 9.258 0 0 0 .009-.419 14.296 14.296 0 0 0-.079-1.558q-.175-1.592-.74-2.561a3.616 3.616 0 0 0-.181-.281Zm11 22.6h.6a4.102 4.102 0 0 0 2.298-.724q.589-.389 1.146-.988a8.546 8.546 0 0 0 .256-.288 8.617 8.617 0 0 0 .968-1.375q.5-.897.659-1.794a4.77 4.77 0 0 0 .073-.831 14.918 14.918 0 0 0-.028-.948q-.089-1.388-.463-1.921a.99.99 0 0 0-.109-.131 3.529 3.529 0 0 0-1.431-.675Q1039.631 16 1039 16q-2.111 0-4.774 2.209a18.375 18.375 0 0 0-.226.191q-1.6 1.6-1.6 3.4a3.512 3.512 0 0 0 1.627 3.07q.618.42 1.47.717a9.461 9.461 0 0 0 .703.213Zm135.189 12.632a10.261 10.261 0 0 0-1.389.968 7.23 7.23 0 0 0-1.055 1.164A4.789 4.789 0 0 0 1168 43.4q0 3.094 2.273 3.795a5.185 5.185 0 0 0 1.527.205 4.38 4.38 0 0 0 .615-.043q.991-.14 1.931-.737a7.358 7.358 0 0 0 1.254-1.02 10.943 10.943 0 0 0 .691-.756q1.509-1.822 1.509-3.644a3.537 3.537 0 0 0-.242-1.305 3.89 3.89 0 0 0-.758-1.195 3.24 3.24 0 0 0-1.336-.897 3.783 3.783 0 0 0-1.264-.203q-1.359 0-2.811.832ZM1165 31.8a2.321 2.321 0 0 0-.332.025q-.922.134-2.268.975-3 2.2-3 5.6 0 .984.692 2.018a7.05 7.05 0 0 0 .708.882q1.4 1.5 2.6 1.5.65 0 2.092-1.056a21.041 21.041 0 0 0 .708-.544 5.134 5.134 0 0 0 1.557-2.505A7.005 7.005 0 0 0 1168 36.8q0-5-3-5ZM1014 8.2q-1.4-1.4-2.2-1.4-1.034 0-2.068 1.485a9.052 9.052 0 0 0-.332.515 8.259 8.259 0 0 0-1.1 2.945 7.84 7.84 0 0 0-.1 1.255 6.043 6.043 0 0 0 .241 1.74 4.969 4.969 0 0 0 .859 1.66 4.03 4.03 0 0 0 .885.846 3.138 3.138 0 0 0 1.815.554 3.742 3.742 0 0 0 2.014-.603 5.613 5.613 0 0 0 .986-.797 2.994 2.994 0 0 0 .675-1.081q.325-.864.325-2.119a8.215 8.215 0 0 0-.258-2.118A5.793 5.793 0 0 0 1014 8.2Zm159.964 40.231a4.246 4.246 0 0 0-1.564.969q-.587.588-.959 1.202a4.189 4.189 0 0 0-.641 2.198 6.152 6.152 0 0 0 .087 1.071q.519 2.929 4.113 2.929a3.888 3.888 0 0 0 1.053-.144q1.404-.393 2.647-1.856a10.043 10.043 0 0 0 .299-.368q.557-.722.893-1.444a5.151 5.151 0 0 0 .508-2.188 3.543 3.543 0 0 0-.001-.077 2.699 2.699 0 0 0-.799-1.923q-.8-.8-2.8-.8-1.664 0-2.836.431Zm-23.067-5.358A2.515 2.515 0 0 0 1152 44.4q.578.347 1.089.493a2.583 2.583 0 0 0 .711.107q1.1 0 2.058-.756a5.427 5.427 0 0 0 .842-.844 5.681 5.681 0 0 0 .917-1.588A6.227 6.227 0 0 0 1158 39.6a6.832 6.832 0 0 0-.137-1.402 4.657 4.657 0 0 0-1.263-2.398q-1-1-1.8-1a2.517 2.517 0 0 0-1.408.444q-.79.522-1.492 1.656a9.759 9.759 0 0 0-.511.932 7.743 7.743 0 0 0-.789 3.368 6.866 6.866 0 0 0 .045.813q.071.593.252 1.06Zm-596.8-9.803a8.115 8.115 0 0 0-1.097.93q-.587.588-.959 1.202a4.189 4.189 0 0 0-.641 2.198 4.528 4.528 0 0 0 .099.98 2.653 2.653 0 0 0 1.301 1.82q.8.6 1.8.6a3.608 3.608 0 0 0 2.101-.657 4.87 4.87 0 0 0 .999-.943 5.596 5.596 0 0 0 1.069-2.117A7.307 7.307 0 0 0 559 35.4a6.466 6.466 0 0 0-.023-.559q-.212-2.441-2.377-2.441a3.773 3.773 0 0 0-1.193.198q-.655.217-1.31.672Zm744.6 0a8.115 8.115 0 0 0-1.097.93q-.587.588-.959 1.202A4.189 4.189 0 0 0 1296 37.6a4.528 4.528 0 0 0 .099.98 2.653 2.653 0 0 0 1.301 1.82q.8.6 1.8.6a3.608 3.608 0 0 0 2.101-.657 4.87 4.87 0 0 0 .999-.943 5.596 5.596 0 0 0 1.069-2.117 7.307 7.307 0 0 0 .231-1.883 6.466 6.466 0 0 0-.023-.559q-.212-2.441-2.377-2.441a3.773 3.773 0 0 0-1.193.198q-.655.217-1.31.672Zm-753.031-2.939A5.861 5.861 0 0 0 545 31a6.912 6.912 0 0 0-.377.556 5.392 5.392 0 0 0-.823 2.844q0 4.4 3.2 4.4 1 0 2.4-1.5a9.746 9.746 0 0 0 .169-.185q1.231-1.39 1.231-2.515a9.387 9.387 0 0 0-.003-.246q-.054-2.033-.997-3.354-1-1.4-2.4-1.4a2.261 2.261 0 0 0-.979.233q-.378.18-.755.498Zm744.6 0a5.861 5.861 0 0 0-.666.669 6.912 6.912 0 0 0-.377.556 5.392 5.392 0 0 0-.823 2.844q0 4.4 3.2 4.4 1 0 2.4-1.5a9.746 9.746 0 0 0 .169-.185q1.231-1.39 1.231-2.515a9.387 9.387 0 0 0-.003-.246q-.054-2.033-.997-3.354-1-1.4-2.4-1.4a2.261 2.261 0 0 0-.979.233q-.378.18-.755.498Zm-138.785 62.94A2.051 2.051 0 0 0 1150 94.4a1.129 1.129 0 0 0-.071.125q-.329.663-.329 2.475 0 2.2.8 3.6a5.326 5.326 0 0 0 .294.377q1.909 2.22 4.506-.377a4.567 4.567 0 0 0 .265-.288q1.494-1.775.315-4.279a8.85 8.85 0 0 0-.58-1.033 5.174 5.174 0 0 0-.616-.766 3.244 3.244 0 0 0-2.384-1.034 3.421 3.421 0 0 0-.719.071Zm-9.139 3.521a2.424 2.424 0 0 0-.542.808 14.44 14.44 0 0 0-.133.419q-.176.586-.236.999a2.683 2.683 0 0 0-.031.382 4.616 4.616 0 0 0 .507 2.093 6.24 6.24 0 0 0 .893 1.307 7.003 7.003 0 0 0 .26.282q1.288 1.318 2.74 1.318a4.42 4.42 0 0 0 1.111-.128q1.889-.491 1.889-2.872a4.638 4.638 0 0 0-.564-2.234 5.897 5.897 0 0 0-1.036-1.366 7.958 7.958 0 0 0-.55-.503q-1.325-1.097-2.65-1.097a3.171 3.171 0 0 0-.479.035q-.711.109-1.179.557ZM555.229 45.588a3.419 3.419 0 0 0 .371.612 6.103 6.103 0 0 0 .252.388q1.754 2.475 4.548.612a6.296 6.296 0 0 0 .883-.616A3.994 3.994 0 0 0 562.8 43.4q0-2.176-1.692-2.661A4.031 4.031 0 0 0 560 40.6a5.222 5.222 0 0 0-1.777.31 6.193 6.193 0 0 0-1.623.89 4.943 4.943 0 0 0-.844.789A3.076 3.076 0 0 0 555 44.6a2.135 2.135 0 0 0 .002.093q.019.447.227.895Zm744.6 0a3.419 3.419 0 0 0 .371.612 6.103 6.103 0 0 0 .252.388q1.754 2.475 4.548.612a6.296 6.296 0 0 0 .883-.616 3.994 3.994 0 0 0 1.517-3.184q0-2.176-1.692-2.661a4.031 4.031 0 0 0-1.108-.139 5.222 5.222 0 0 0-1.777.31 6.193 6.193 0 0 0-1.623.89 4.943 4.943 0 0 0-.844.789 3.076 3.076 0 0 0-.756 2.011 2.135 2.135 0 0 0 .002.093q.019.447.227.895Zm-760.75-11.724a14.138 14.138 0 0 0-.279.136q-1.8 1.2-1.8 4.2 0 2 1 3a5.021 5.021 0 0 0 .319.322q1.856 1.703 3.881-.322a3.28 3.28 0 0 0 .835-1.399 4.17 4.17 0 0 0 .165-1.201q0-1.8-1-3.4a5.503 5.503 0 0 0-.193-.289q-.94-1.311-2.207-1.311a.213.213 0 0 0-.006 0q-.167.005-.715.264Zm744.6 0a14.138 14.138 0 0 0-.279.136q-1.8 1.2-1.8 4.2 0 2 1 3a5.021 5.021 0 0 0 .319.322q1.856 1.703 3.881-.322a3.28 3.28 0 0 0 .835-1.399 4.17 4.17 0 0 0 .165-1.201q0-1.8-1-3.4a5.503 5.503 0 0 0-.193-.289q-.94-1.311-2.207-1.311a.213.213 0 0 0-.006 0q-.167.005-.715.264Zm-124.664 63.2a39.369 39.369 0 0 0-.415.136 3.823 3.823 0 0 0-1.587 2.092 5.057 5.057 0 0 0-.213 1.508 8.897 8.897 0 0 0 .075 1.2q.251 1.839 1.348 2.47a2.717 2.717 0 0 0 1.377.33 3.259 3.259 0 0 0 1.712-.492 4.708 4.708 0 0 0 .888-.708 5.011 5.011 0 0 0 .076-.078 3.817 3.817 0 0 0 1.124-2.722q0-1.6-1-2.8-1-1.2-2.4-1.2a.418.418 0 0 0-.057.005q-.218.031-.928.259ZM761.339 40.767a3.276 3.276 0 0 0-.539.633 28.401 28.401 0 0 0-.196.341Q759.4 43.873 759.4 44.8a2.122 2.122 0 0 0 .009.19q.058.649.508 1.454a8.11 8.11 0 0 0 .483.756q1.719 2.063 3.733.58a5.881 5.881 0 0 0 .667-.58 5.011 5.011 0 0 0 .416-.47q.951-1.225.784-2.73-1-3.8-3.2-3.8a2.131 2.131 0 0 0-1.461.567ZM752.4 43.2q.8-1.4 2.2-1.4a2.718 2.718 0 0 1 1.512.475q.563.369 1.088 1.025a5.499 5.499 0 0 1 .954 1.73 5.021 5.021 0 0 1 .246 1.57 4.065 4.065 0 0 1-.103.943q-.217.913-.897 1.457a6.999 6.999 0 0 1-.503.277q-.656.323-1.097.323a2.882 2.882 0 0 1-1.592-.493q-.419-.272-.816-.694a6.025 6.025 0 0 1-.192-.213Q752 46.8 752 45q0-1.2.4-1.8Zm387.419 61.057a1.762 1.762 0 0 0-.419.143q-1 .6-1 2.2a4.165 4.165 0 0 0 .401 1.783 5.369 5.369 0 0 0 .799 1.217 4.362 4.362 0 0 0 .192.283q.48.648 1.119.977a3.204 3.204 0 0 0 1.489.34q2.177 0 2.661-1.692a4.031 4.031 0 0 0 .139-1.108 6.979 6.979 0 0 0-.001-.098q-.016-1.127-.399-1.702-1.8-2.4-4.4-2.4-.319 0-.581.057ZM767.888 45.34a10.549 10.549 0 0 0-.488.46q-1.6 1.6-1.6 3.6a4.402 4.402 0 0 0 .115 1.054q.306 1.237 1.425 1.597a3.454 3.454 0 0 0 1.06.149 4.487 4.487 0 0 0 .21-.005A3.308 3.308 0 0 0 771 51.1a3.735 3.735 0 0 0 .765-1.267A4.235 4.235 0 0 0 772 48.4a4.108 4.108 0 0 0-.172-1.187 4.511 4.511 0 0 0-.728-1.413 4.666 4.666 0 0 0-.377-.445q-.73-.755-1.523-.755-.471 0-1.312.74Zm-350.246 6.969a6.816 6.816 0 0 0-.642.491 5.082 5.082 0 0 0-.397.329A3.505 3.505 0 0 0 415.4 55.8a7.335 7.335 0 0 0 .017.512q.203 2.888 2.783 2.888a2.128 2.128 0 0 0 .393-.039q.234-.044.492-.137a4.859 4.859 0 0 0 .515-.224 3.142 3.142 0 0 0 1.023-.645q.606-.582.836-1.501a5.167 5.167 0 0 0 .141-1.254q0-1.2-.4-2a5.103 5.103 0 0 0-.284-.529q-1.205-1.946-3.274-.562ZM411.4 60.4h-.4a1.932 1.932 0 0 1-1.223-.448q-.293-.233-.562-.585a5.041 5.041 0 0 1-.315-.467q-.9-1.5-.9-3.3 0-1.4.8-2.2a2.091 2.091 0 0 1 .617-.435 1.879 1.879 0 0 1 .783-.165q1.221 0 2.367 1.066a6.467 6.467 0 0 1 .333.334 5.452 5.452 0 0 1 .805 1.101 3.925 3.925 0 0 1 .495 1.899 2.718 2.718 0 0 1-.861 1.973q-.692.693-1.939 1.227Zm11.823-3.353a6.426 6.426 0 0 0-.623.553 7.041 7.041 0 0 0-.211.258q-.393.505-.63 1.011a3.581 3.581 0 0 0-.359 1.531q0 1.2.8 2.2.288.359.601.59a1.987 1.987 0 0 0 1.199.41 3.543 3.543 0 0 0 .077-.001A2.699 2.699 0 0 0 426 62.8a3.053 3.053 0 0 0 .49-.515q.422-.562.593-1.333a5.313 5.313 0 0 0 .117-1.152q0-2.444-1.24-3.131a2.358 2.358 0 0 0-1.16-.269 1.726 1.726 0 0 0-.198.012q-.649.074-1.379.635Zm325.957-8.175a1.296 1.296 0 0 0-.58.328q-.4.4-.4 1.4a4.839 4.839 0 0 0 .034.569q.087.734.396 1.509A8.776 8.776 0 0 0 749.3 54q.636 1.041 1.305 1.48a1.795 1.795 0 0 0 .995.32 3.362 3.362 0 0 0 .414-.024Q754 55.529 754 52.8a3.758 3.758 0 0 0-.329-1.565A4.182 4.182 0 0 0 752.8 50a3.327 3.327 0 0 0-.158-.148q-.44-.387-1.04-.641a5.513 5.513 0 0 0-1.002-.311 5.486 5.486 0 0 0-.129-.026q-.775-.147-1.291-.002ZM404.388 59.726a4.151 4.151 0 0 0-.388.674 5.071 5.071 0 0 0-.185.412q-.215.548-.215.988a3.049 3.049 0 0 0 .47 1.635 4.136 4.136 0 0 0 .73.865q1.2 1.1 2.4 1.1a1.911 1.911 0 0 0 .451-.053q.436-.106.829-.42a3.329 3.329 0 0 0 .52-.527 3.588 3.588 0 0 0 .351-.618q.74-1.691-.951-3.382a9.839 9.839 0 0 0-.491-.46q-2.257-1.967-3.521-.214ZM996.6 9h.6q2.939-.783 1.272-4.254a10.28 10.28 0 0 0-.072-.146 6.57 6.57 0 0 0-.392-.649q-1.384-1.998-2.913-.073A5.511 5.511 0 0 0 995 4a3.529 3.529 0 0 0-.675 1.431q-.125.538-.125 1.169a3.455 3.455 0 0 0 .119.95q.305 1.065 1.392 1.348A3.536 3.536 0 0 0 996.6 9ZM993 9a1.762 1.762 0 0 0 .144-.419q.056-.262.056-.581a3.102 3.102 0 0 0-.983-2.289 4.142 4.142 0 0 0-.117-.111 4.453 4.453 0 0 0-.804-.589q-.716-.404-1.472-.411a2.871 2.871 0 0 0-.024 0q-.4 0-1.2.4-.4.4-.3 2 .1 1.6.7 2.4.711.711 1.738.711A3.151 3.151 0 0 0 991 10.1a2.754 2.754 0 0 0 1.924-1.008A3.66 3.66 0 0 0 993 9Zm9.6 2.8a2.585 2.585 0 0 0 1.165-1.874 3.769 3.769 0 0 0 .035-.526 6.657 6.657 0 0 0-.076-1.057q-.3-1.854-1.779-1.939a2.525 2.525 0 0 0-.145-.004q-.8 0-1.6 1a2.699 2.699 0 0 0-.799 1.923 3.543 3.543 0 0 0-.001.077 5.228 5.228 0 0 0 .091 1.022q.356 1.778 2.109 1.778a.455.455 0 0 0 .106-.016q.252-.064.873-.373a17.74 17.74 0 0 0 .021-.011Zm-12.8 1a1.94 1.94 0 0 0-.301-1.019q-.18-.297-.468-.583a4.556 4.556 0 0 0-.331-.298 5.13 5.13 0 0 0-.694-.484q-.397-.227-.781-.331A2.402 2.402 0 0 0 986.6 10a1.743 1.743 0 0 0-.588.091q-.769.275-.81 1.384a3.444 3.444 0 0 0-.002.125 1.455 1.455 0 0 0 .019.213q.057.374.283 1.085a21.948 21.948 0 0 0 .098.302 2.967 2.967 0 0 0 .43.791q.583.746 1.595.804a3.04 3.04 0 0 0 .175.005 2.879 2.879 0 0 0 .791-.099q1.209-.346 1.209-1.901Z" vector-effect="non-scaling-stroke" stroke-linecap="round" fill-rule="evenodd" font-size="12" stroke="#030303" stroke-width=".25mm" fill="#e0a8a8" style="stroke:#030303;stroke-width:.25mm;fill:#e0a8a8"/></svg>