<?xml version="1.0" encoding="UTF-8" standalone="no"?>
<!-- Created with Inkscape (http://www.inkscape.org/) -->

<svg
   version="1.1"
   id="svg2"
   width="1066.6667"
   height="1066.6667"
   viewBox="0 0 1066.6667 1066.6667"
   sodipodi:docname="dog_and_cat_pattern-16.eps"
   xmlns:inkscape="http://www.inkscape.org/namespaces/inkscape"
   xmlns:sodipodi="http://sodipodi.sourceforge.net/DTD/sodipodi-0.dtd"
   xmlns="http://www.w3.org/2000/svg"
   xmlns:svg="http://www.w3.org/2000/svg">
  <defs
     id="defs6" />
  <sodipodi:namedview
     id="namedview4"
     pagecolor="#ffffff"
     bordercolor="#000000"
     borderopacity="0.25"
     inkscape:showpageshadow="2"
     inkscape:pageopacity="0.0"
     inkscape:pagecheckerboard="0"
     inkscape:deskcolor="#d1d1d1" />
  <g
     id="g8"
     inkscape:groupmode="layer"
     inkscape:label="ink_ext_XXXXXX"
     transform="matrix(1.3333333,0,0,-1.3333333,0,1066.6667)">
    <g
       id="g10"
       transform="scale(0.1)">
      <path
         d="M 8000,0 H 0 V 8000 H 8000 V 0"
         style="fill:#ffffff;fill-opacity:1;fill-rule:nonzero;stroke:none"
         id="path12" />
      <path
         d="m 2818.7,637.832 c -136.35,-136.344 -82.18,-519.82 -82.18,-519.82 l 768.07,2.179 C 3355,357.98 2982.83,589.059 2818.7,637.832"
         style="fill:#d8d7d5;fill-opacity:1;fill-rule:nonzero;stroke:none"
         id="path14" />
      <path
         d="M 2818.7,637.832 C 2755,574.129 3021.43,140.25 3021.43,140.25 l 483.16,-20.059 C 3355,357.992 2893.5,712.641 2818.7,637.832"
         style="fill:#f68f9e;fill-opacity:1;fill-rule:nonzero;stroke:none"
         id="path16" />
      <path
         d="M 3691.43,18.1094 C 3423.1,286.441 2984.58,444.949 2612.41,72.7695 2588.39,48.75 2566.64,24.4688 2546.98,0 h 1157.29 c -8.47,10.1094 -12.84,18.1094 -12.84,18.1094"
         style="fill:#d8d7d5;fill-opacity:1;fill-rule:nonzero;stroke:none"
         id="path18" />
      <path
         d="m 3366.05,5849.29 -0.6,123.89 32.37,32.69 c 44.24,44.66 43.88,117.39 -0.78,161.62 -44.66,44.23 -117.39,43.88 -161.62,-0.78 l -27,-27.27 -134.69,-0.65 c -62.85,-0.3 -114.03,-51.98 -113.73,-114.83 v 0 c 0.31,-62.86 51.98,-114.04 114.84,-113.74 l 54.54,0.27 c 2.02,-2.35 4.06,-4.69 6.29,-6.9 0.5,-0.49 1.05,-0.9 1.55,-1.39 l 0.26,-54.02 c 0.3,-62.85 51.98,-114.03 114.83,-113.73 h 0.01 c 62.85,0.31 114.03,51.98 113.73,114.84"
         style="fill:#d8d7d5;fill-opacity:1;fill-rule:nonzero;stroke:none"
         id="path20" />
      <path
         d="m 3253.64,6420.9 c 14.55,-53.28 1.67,-103.21 -28.78,-111.52 -30.44,-8.32 -66.92,28.13 -81.47,81.41 -14.55,53.27 -1.67,103.2 28.78,111.52 30.44,8.31 66.92,-28.14 81.47,-81.41"
         style="fill:#d8d7d5;fill-opacity:1;fill-rule:nonzero;stroke:none"
         id="path22" />
      <path
         d="m 3651.82,6026.54 c -53.41,14.04 -103.21,0.67 -111.23,-29.85 -8.03,-30.53 28.77,-66.65 82.19,-80.68 53.41,-14.04 103.22,-0.68 111.24,29.85 8.02,30.52 -28.78,66.64 -82.2,80.68"
         style="fill:#d8d7d5;fill-opacity:1;fill-rule:nonzero;stroke:none"
         id="path24" />
      <path
         d="m 3526.27,6363.98 c -44.94,-64.85 -112.91,-95.56 -151.82,-68.59 -38.91,26.96 -34.02,101.39 10.92,166.24 44.94,64.84 112.92,95.56 151.82,68.59 38.91,-26.97 34.02,-101.39 -10.92,-166.24"
         style="fill:#d8d7d5;fill-opacity:1;fill-rule:nonzero;stroke:none"
         id="path26" />
      <path
         d="m 3592.28,6298.61 c -64.41,-45.57 -94.47,-113.83 -67.13,-152.48 27.34,-38.65 101.72,-33.04 166.13,12.53 64.41,45.56 94.46,113.83 67.12,152.48 -27.34,38.64 -101.71,33.03 -166.12,-12.53"
         style="fill:#d8d7d5;fill-opacity:1;fill-rule:nonzero;stroke:none"
         id="path28" />
      <path
         d="M 2105.48,824.281 V 948.18 l 32.53,32.531 c 44.45,44.449 44.45,117.179 0,161.629 -44.45,44.44 -117.18,44.44 -161.63,0 l -27.13,-27.14 h -134.68 c -62.86,0 -114.29,-51.43 -114.29,-114.28 v -0.01 c 0,-62.847 51.43,-114.281 114.29,-114.281 h 54.54 c 2,-2.359 4.03,-4.707 6.26,-6.938 0.49,-0.492 1.04,-0.902 1.54,-1.382 V 824.281 C 1876.91,761.43 1928.34,710 1991.19,710 v 0 c 62.86,0 114.29,51.43 114.29,114.281"
         style="fill:#d8d7d5;fill-opacity:1;fill-rule:nonzero;stroke:none"
         id="path30" />
      <path
         d="m 1995.83,1396.43 c 14.29,-53.34 1.17,-103.21 -29.31,-111.38 -30.49,-8.17 -66.79,28.46 -81.08,81.8 -14.29,53.35 -1.17,103.22 29.31,111.38 30.49,8.17 66.79,-28.45 81.08,-81.8"
         style="fill:#d8d7d5;fill-opacity:1;fill-rule:nonzero;stroke:none"
         id="path32" />
      <path
         d="m 2392.11,1000.16 c -53.35,14.29 -103.22,1.17 -111.38,-29.32 -8.17,-30.481 28.45,-66.781 81.8,-81.07 53.34,-14.301 103.21,-1.18 111.38,29.312 8.17,30.477 -28.46,66.777 -81.8,81.078"
         style="fill:#d8d7d5;fill-opacity:1;fill-rule:nonzero;stroke:none"
         id="path34" />
      <path
         d="m 2268.18,1338.2 c -45.25,-64.63 -113.37,-95.01 -152.15,-67.86 -38.78,27.15 -33.53,101.56 11.73,166.19 45.25,64.62 113.37,95.01 152.15,67.85 38.78,-27.15 33.53,-101.55 -11.73,-166.18"
         style="fill:#d8d7d5;fill-opacity:1;fill-rule:nonzero;stroke:none"
         id="path36" />
      <path
         d="m 2333.87,1272.51 c -64.63,-45.25 -95.01,-113.38 -67.85,-152.15 27.15,-38.78 101.55,-33.53 166.18,11.72 64.63,45.26 95.01,113.38 67.86,152.16 -27.15,38.77 -101.56,33.52 -166.19,-11.73"
         style="fill:#d8d7d5;fill-opacity:1;fill-rule:nonzero;stroke:none"
         id="path38" />
      <path
         d="m 1795.48,3069.96 v 123.89 l 32.53,32.53 c 44.45,44.45 44.45,117.18 0,161.63 -44.45,44.45 -117.18,44.45 -161.63,0 l -27.13,-27.14 h -134.68 c -62.86,0 -114.29,-51.42 -114.29,-114.28 v 0 c 0,-62.86 51.43,-114.29 114.29,-114.29 h 54.54 c 2,-2.36 4.03,-4.7 6.26,-6.93 0.49,-0.49 1.04,-0.9 1.54,-1.39 v -54.02 c 0,-62.86 51.43,-114.28 114.28,-114.29 v 0.01 c 62.86,0 114.29,51.42 114.29,114.28"
         style="fill:#d8d7d5;fill-opacity:1;fill-rule:nonzero;stroke:none"
         id="path40" />
      <path
         d="m 1685.83,3642.11 c 14.29,-53.35 1.17,-103.22 -29.31,-111.38 -30.49,-8.17 -66.79,28.45 -81.08,81.8 -14.29,53.34 -1.17,103.21 29.31,111.38 30.49,8.17 66.79,-28.46 81.08,-81.8"
         style="fill:#d8d7d5;fill-opacity:1;fill-rule:nonzero;stroke:none"
         id="path42" />
      <path
         d="m 2082.11,3245.83 c -53.35,14.29 -103.22,1.17 -111.38,-29.31 -8.17,-30.49 28.45,-66.79 81.8,-81.08 53.34,-14.29 103.21,-1.17 111.38,29.31 8.17,30.49 -28.46,66.79 -81.8,81.08"
         style="fill:#d8d7d5;fill-opacity:1;fill-rule:nonzero;stroke:none"
         id="path44" />
      <path
         d="m 1958.18,3583.87 c -45.25,-64.63 -113.37,-95.01 -152.15,-67.85 -38.78,27.15 -33.53,101.55 11.73,166.18 45.25,64.63 113.37,95.01 152.15,67.86 38.78,-27.15 33.53,-101.56 -11.73,-166.19"
         style="fill:#d8d7d5;fill-opacity:1;fill-rule:nonzero;stroke:none"
         id="path46" />
      <path
         d="m 2023.87,3518.18 c -64.63,-45.25 -95.01,-113.37 -67.85,-152.15 27.15,-38.78 101.55,-33.53 166.18,11.73 64.63,45.25 95.01,113.37 67.86,152.15 -27.15,38.78 -101.56,33.53 -166.19,-11.73"
         style="fill:#d8d7d5;fill-opacity:1;fill-rule:nonzero;stroke:none"
         id="path48" />
      <path
         d="m 5645.2,7054.29 v 123.89 l 32.53,32.53 c 44.45,44.45 44.45,117.18 0,161.63 -44.45,44.44 -117.18,44.44 -161.62,0 l -27.14,-27.14 h -134.69 c -62.85,0 -114.28,-51.43 -114.28,-114.28 v -0.01 c 0,-62.85 51.43,-114.28 114.28,-114.28 h 54.55 c 2,-2.36 4.03,-4.71 6.26,-6.93 0.5,-0.5 1.04,-0.91 1.54,-1.39 v -54.02 c 0,-62.86 51.43,-114.29 114.28,-114.29 h 0.01 c 62.85,0 114.28,51.43 114.28,114.29"
         style="fill:#d8d7d5;fill-opacity:1;fill-rule:nonzero;stroke:none"
         id="path50" />
      <path
         d="m 5535.55,7626.43 c 14.3,-53.34 1.17,-103.21 -29.31,-111.38 -30.49,-8.17 -66.79,28.46 -81.08,81.8 -14.29,53.35 -1.17,103.22 29.31,111.38 30.49,8.17 66.79,-28.45 81.08,-81.8"
         style="fill:#d8d7d5;fill-opacity:1;fill-rule:nonzero;stroke:none"
         id="path52" />
      <path
         d="m 5931.83,7230.16 c -53.35,14.29 -103.22,1.17 -111.38,-29.32 -8.17,-30.48 28.45,-66.78 81.8,-81.07 53.35,-14.3 103.21,-1.18 111.38,29.31 8.17,30.48 -28.45,66.78 -81.8,81.08"
         style="fill:#d8d7d5;fill-opacity:1;fill-rule:nonzero;stroke:none"
         id="path54" />
      <path
         d="m 5807.91,7568.2 c -45.26,-64.63 -113.38,-95.01 -152.16,-67.86 -38.77,27.15 -33.53,101.56 11.73,166.19 45.25,64.63 113.37,95.01 152.15,67.86 38.78,-27.16 33.53,-101.56 -11.72,-166.19"
         style="fill:#d8d7d5;fill-opacity:1;fill-rule:nonzero;stroke:none"
         id="path56" />
      <path
         d="m 5873.59,7502.51 c -64.63,-45.25 -95.01,-113.38 -67.85,-152.15 27.15,-38.78 101.55,-33.53 166.18,11.72 64.63,45.26 95.01,113.38 67.86,152.15 -27.15,38.78 -101.56,33.54 -166.19,-11.72"
         style="fill:#d8d7d5;fill-opacity:1;fill-rule:nonzero;stroke:none"
         id="path58" />
      <path
         d="m 3114.96,4438.11 87.61,87.61 h 46 c 62.86,0 114.29,51.42 114.29,114.28 0,62.86 -51.43,114.28 -114.29,114.28 h -38.37 l -95.24,95.24 c -44.45,44.45 -117.18,44.45 -161.63,0 v 0 c -44.44,-44.44 -44.44,-117.18 0,-161.62 l 38.57,-38.57 c -0.25,-3.09 -0.47,-6.18 -0.47,-9.33 0,-0.7 0.09,-1.37 0.1,-2.07 l -38.2,-38.2 c -44.44,-44.44 -44.44,-117.18 0,-161.62 v 0 c 44.45,-44.45 117.18,-44.45 161.63,0"
         style="fill:#d8d7d5;fill-opacity:1;fill-rule:nonzero;stroke:none"
         id="path60" />
      <path
         d="m 3441.99,4920.21 c -27.61,-47.83 -72.15,-73.81 -99.48,-58.03 -27.33,15.78 -27.1,67.34 0.51,115.17 27.61,47.83 72.16,73.81 99.49,58.03 27.33,-15.78 27.1,-67.34 -0.52,-115.17"
         style="fill:#d8d7d5;fill-opacity:1;fill-rule:nonzero;stroke:none"
         id="path62" />
      <path
         d="m 3441.99,4359.79 c -27.61,47.83 -72.15,73.81 -99.48,58.03 -27.33,-15.78 -27.1,-67.34 0.51,-115.17 27.61,-47.83 72.16,-73.81 99.49,-58.03 27.33,15.78 27.1,67.34 -0.52,115.17"
         style="fill:#d8d7d5;fill-opacity:1;fill-rule:nonzero;stroke:none"
         id="path64" />
      <path
         d="m 3593.4,4686.45 c -77.7,-13.7 -147.35,12.99 -155.57,59.6 -8.22,46.62 48.1,95.52 125.8,109.22 77.7,13.7 147.35,-12.98 155.57,-59.6 8.22,-46.62 -48.1,-95.52 -125.8,-109.22"
         style="fill:#d8d7d5;fill-opacity:1;fill-rule:nonzero;stroke:none"
         id="path66" />
      <path
         d="m 3593.4,4593.55 c -77.7,13.7 -147.35,-12.99 -155.57,-59.6 -8.22,-46.62 48.1,-95.52 125.8,-109.22 77.7,-13.7 147.35,12.98 155.57,59.6 8.22,46.62 -48.1,95.52 -125.8,109.22"
         style="fill:#d8d7d5;fill-opacity:1;fill-rule:nonzero;stroke:none"
         id="path68" />
      <path
         d="m 5354.96,4358.11 87.61,87.61 h 46 c 62.86,0 114.29,51.42 114.29,114.28 0,62.86 -51.43,114.28 -114.29,114.28 h -38.37 l -95.24,95.24 c -44.45,44.45 -117.18,44.45 -161.63,0 v 0 c -44.44,-44.44 -44.44,-117.18 0,-161.62 l 38.57,-38.57 c -0.25,-3.09 -0.47,-6.18 -0.47,-9.33 0,-0.7 0.09,-1.37 0.1,-2.07 l -38.2,-38.2 c -44.44,-44.44 -44.44,-117.18 0,-161.62 v 0 c 44.45,-44.45 117.18,-44.45 161.63,0"
         style="fill:#d8d7d5;fill-opacity:1;fill-rule:nonzero;stroke:none"
         id="path70" />
      <path
         d="m 5681.99,4840.21 c -27.61,-47.83 -72.15,-73.81 -99.48,-58.03 -27.33,15.78 -27.1,67.34 0.51,115.17 27.61,47.83 72.16,73.81 99.49,58.03 27.33,-15.78 27.1,-67.34 -0.52,-115.17"
         style="fill:#d8d7d5;fill-opacity:1;fill-rule:nonzero;stroke:none"
         id="path72" />
      <path
         d="m 5681.99,4279.79 c -27.61,47.83 -72.15,73.81 -99.48,58.03 -27.33,-15.78 -27.1,-67.34 0.51,-115.17 27.61,-47.83 72.16,-73.81 99.49,-58.03 27.33,15.78 27.1,67.34 -0.52,115.17"
         style="fill:#d8d7d5;fill-opacity:1;fill-rule:nonzero;stroke:none"
         id="path74" />
      <path
         d="m 5833.4,4606.45 c -77.7,-13.7 -147.35,12.99 -155.57,59.6 -8.22,46.62 48.1,95.52 125.8,109.22 77.7,13.7 147.35,-12.98 155.57,-59.6 8.22,-46.62 -48.1,-95.52 -125.8,-109.22"
         style="fill:#d8d7d5;fill-opacity:1;fill-rule:nonzero;stroke:none"
         id="path76" />
      <path
         d="m 5833.4,4513.55 c -77.7,13.7 -147.35,-12.99 -155.57,-59.6 -8.22,-46.62 48.1,-95.52 125.8,-109.22 77.7,-13.7 147.35,12.98 155.57,59.6 8.22,46.62 -48.1,95.52 -125.8,109.22"
         style="fill:#d8d7d5;fill-opacity:1;fill-rule:nonzero;stroke:none"
         id="path78" />
      <path
         d="m 7124.96,398.109 87.61,87.61 h 46 c 62.86,0 114.29,51.422 114.29,114.281 0,62.859 -51.43,114.281 -114.29,114.281 h -38.37 l -95.24,95.239 c -44.45,44.449 -117.18,44.449 -161.63,0 v 0 c -44.44,-44.438 -44.44,-117.18 0,-161.622 l 38.57,-38.566 c -0.25,-3.09 -0.47,-6.184 -0.47,-9.332 0,-0.699 0.09,-1.371 0.1,-2.07 l -38.2,-38.2 c -44.44,-44.441 -44.44,-117.179 0,-161.621 v 0 c 44.45,-44.449 117.18,-44.449 161.63,0"
         style="fill:#d8d7d5;fill-opacity:1;fill-rule:nonzero;stroke:none"
         id="path80" />
      <path
         d="m 7451.99,880.211 c -27.61,-47.832 -72.15,-73.809 -99.48,-58.031 -27.33,15.781 -27.1,67.34 0.51,115.172 27.61,47.828 72.16,73.808 99.49,58.027 27.33,-15.777 27.1,-67.34 -0.52,-115.168"
         style="fill:#d8d7d5;fill-opacity:1;fill-rule:nonzero;stroke:none"
         id="path82" />
      <path
         d="m 7451.99,319.789 c -27.61,47.832 -72.15,73.813 -99.48,58.031 -27.33,-15.781 -27.1,-67.34 0.51,-115.168 27.61,-47.832 72.16,-73.812 99.49,-58.031 27.33,15.777 27.1,67.34 -0.52,115.168"
         style="fill:#d8d7d5;fill-opacity:1;fill-rule:nonzero;stroke:none"
         id="path84" />
      <path
         d="m 7603.4,646.449 c -77.7,-13.699 -147.35,12.992 -155.57,59.602 -8.22,46.621 48.1,95.519 125.8,109.219 77.7,13.699 147.35,-12.981 155.57,-59.598 8.22,-46.621 -48.1,-95.52 -125.8,-109.223"
         style="fill:#d8d7d5;fill-opacity:1;fill-rule:nonzero;stroke:none"
         id="path86" />
      <path
         d="m 7603.4,553.551 c -77.7,13.699 -147.35,-12.988 -155.57,-59.602 -8.22,-46.621 48.1,-95.519 125.8,-109.219 77.7,-13.699 147.35,12.981 155.57,59.602 8.22,46.617 -48.1,95.52 -125.8,109.219"
         style="fill:#d8d7d5;fill-opacity:1;fill-rule:nonzero;stroke:none"
         id="path88" />
      <path
         d="m 4340,7560 c -0.01,-22.09 17.9,-40 40,-40 22.08,0 40,17.91 40,40 -0.01,22.09 -17.92,40 -40,40 -22.1,0 -40,-17.91 -40,-40"
         style="fill:#f68f9e;fill-opacity:1;fill-rule:nonzero;stroke:none"
         id="path90" />
      <path
         d="m 4747.71,7444.35 c -177.72,-85.2 -357.73,-85.2 -535.44,0 3.02,66.95 30.52,129.46 78.22,177.17 50.62,50.61 117.91,78.48 189.5,78.48 71.59,0 138.88,-27.87 189.51,-78.5 47.69,-47.69 75.2,-110.2 78.21,-177.15 z m -98.51,-881.83 c -104.6,24.53 -219.45,22.98 -343.03,-4.63 L 4480,6731.72 Z M 4479.99,7740 c -82.27,0 -159.61,-32.03 -217.78,-90.2 -58.19,-58.18 -90.22,-135.53 -90.22,-217.79 0,-7.57 4.29,-14.51 11.07,-17.89 91.89,-45.95 184.39,-70.19 276.94,-73.28 v -135.21 l -295.17,73.77 c -10.71,2.69 -21.57,-3.81 -24.25,-14.55 -2.68,-10.72 3.84,-21.57 14.56,-24.25 L 4460,7164.39 v -137.87 l -254.51,72.72 c -10.6,3.03 -21.7,-3.11 -24.72,-13.74 -3.04,-10.62 3.11,-21.7 13.74,-24.72 L 4460,6984.92 v -118.4 l -254.52,72.72 c -10.61,3.03 -21.71,-3.13 -24.72,-13.74 -3.04,-10.63 3.11,-21.7 13.74,-24.73 l 265.5,-75.85 v -56.63 l -234.14,-234.14 c -6.47,-6.47 -7.72,-16.51 -3.05,-24.38 4.68,-7.86 14.1,-11.54 22.87,-8.95 174.84,51.81 332.04,51.98 467.2,0.51 7.47,-2.86 15.77,-0.94 21.26,4.54 0.98,0.98 1.87,2.08 2.64,3.27 5.14,7.92 4.03,18.34 -2.64,25.01 L 4500,6768.29 v 56.63 l 265.49,75.85 c 3.37,0.96 6.31,2.75 8.63,5.07 4.97,4.97 7.17,12.42 5.1,19.65 -3.03,10.62 -14.1,16.78 -24.73,13.73 L 4500,6866.52 v 118.41 l 265.49,75.85 c 3.37,0.96 6.31,2.75 8.63,5.07 4.97,4.97 7.17,12.42 5.1,19.65 -3.03,10.63 -14.1,16.78 -24.73,13.73 L 4500,7026.52 v 137.87 l 304.84,76.22 c 3.65,0.91 6.81,2.77 9.28,5.24 4.81,4.81 7.05,11.94 5.28,19.01 -2.68,10.71 -13.54,17.23 -24.25,14.55 l -295.16,-73.79 v 135.22 c 92.54,3.09 185.04,27.32 276.94,73.27 1.95,0.97 3.71,2.26 5.2,3.75 3.69,3.69 5.86,8.75 5.86,14.14 0,82.28 -32.04,159.62 -90.21,217.79 -58.18,58.17 -135.52,90.21 -217.79,90.21"
         style="fill:#f68f9e;fill-opacity:1;fill-rule:nonzero;stroke:none"
         id="path92" />
      <path
         d="m 1528.35,2051.3 c 22.1,0 40,17.91 40,40 0,22.09 -17.91,40 -40,40 -22.09,0 -40,-17.91 -40,-40 0,-22.09 17.91,-40 40,-40"
         style="fill:#f68f9e;fill-opacity:1;fill-rule:nonzero;stroke:none"
         id="path94" />
      <path
         d="m 1644.01,2459.02 c 85.2,-177.73 85.2,-357.74 0,-535.44 -66.95,3.01 -129.47,30.51 -177.17,78.22 -50.61,50.61 -78.48,117.9 -78.49,189.49 0,71.6 27.88,138.89 78.51,189.51 47.69,47.7 110.2,75.21 177.15,78.22 z m 881.83,-98.51 c -24.53,-104.6 -22.98,-219.45 4.63,-343.04 l -173.83,173.84 z M 1348.36,2191.29 c -0.01,-82.26 32.03,-159.61 90.2,-217.78 58.18,-58.18 135.53,-90.22 217.79,-90.21 7.57,0 14.5,4.28 17.89,11.06 45.95,91.9 70.18,184.4 73.27,276.94 h 135.22 l -73.78,-295.16 c -2.68,-10.72 3.81,-21.57 14.56,-24.25 10.72,-2.68 21.57,3.84 24.25,14.56 l 76.2,304.85 137.88,0.01 -72.72,-254.52 c -3.03,-10.6 3.11,-21.69 13.73,-24.71 10.63,-3.05 21.7,3.11 24.73,13.73 l 75.86,265.5 h 118.4 l -72.72,-254.53 c -3.04,-10.6 3.12,-21.7 13.74,-24.71 10.62,-3.04 21.69,3.11 24.73,13.74 l 75.85,265.5 h 56.62 l 234.15,-234.15 c 6.46,-6.46 16.51,-7.72 24.38,-3.05 7.86,4.68 11.53,14.11 8.95,22.87 -51.81,174.85 -51.98,332.05 -0.51,467.21 2.86,7.47 0.94,15.77 -4.54,21.25 -0.98,0.99 -2.08,1.88 -3.27,2.65 -7.93,5.14 -18.35,4.02 -25.02,-2.65 l -234.14,-234.13 -56.63,-0.01 -75.84,265.49 c -0.96,3.38 -2.75,6.32 -5.07,8.64 -4.98,4.97 -12.42,7.17 -19.65,5.1 -10.63,-3.03 -16.78,-14.1 -13.73,-24.73 l 72.7,-254.5 h -118.41 l -75.85,265.49 c -0.96,3.38 -2.75,6.32 -5.07,8.64 -4.98,4.97 -12.42,7.17 -19.65,5.1 -10.63,-3.03 -16.78,-14.1 -13.73,-24.73 l 72.71,-254.5 h -137.87 l -76.22,304.85 c -0.91,3.64 -2.77,6.81 -5.25,9.28 -4.8,4.8 -11.93,7.04 -19,5.28 -10.72,-2.69 -17.24,-13.54 -14.55,-24.26 l 73.79,-295.15 h -135.23 c -3.08,92.54 -27.31,185.04 -73.26,276.94 -0.97,1.95 -2.26,3.71 -3.75,5.2 -3.69,3.68 -8.76,5.85 -14.14,5.85 -82.28,0.01 -159.62,-32.03 -217.79,-90.2 -58.18,-58.18 -90.22,-135.52 -90.21,-217.8"
         style="fill:#f68f9e;fill-opacity:1;fill-rule:nonzero;stroke:none"
         id="path96" />
      <path
         d="m 2269.16,5860 c -22.09,0.01 -40,-17.9 -40,-40 0,-22.08 17.91,-40 40,-40 22.09,0.01 40,17.92 40,40 0,22.1 -17.91,40 -40,40"
         style="fill:#f68f9e;fill-opacity:1;fill-rule:nonzero;stroke:none"
         id="path98" />
      <path
         d="m 2153.5,5452.29 c -85.19,177.72 -85.19,357.73 0,535.44 66.96,-3.02 129.47,-30.52 177.17,-78.22 50.62,-50.62 78.48,-117.91 78.49,-189.5 0,-71.59 -27.88,-138.88 -78.5,-189.51 -47.69,-47.69 -110.2,-75.2 -177.16,-78.21 z m -881.82,98.51 c 24.53,104.6 22.98,219.45 -4.63,343.03 L 1440.88,5720 Z m 1177.48,169.21 c 0,82.27 -32.03,159.61 -90.2,217.78 -58.19,58.19 -135.53,90.22 -217.8,90.22 -7.56,0 -14.5,-4.29 -17.88,-11.07 -45.95,-91.89 -70.19,-184.39 -73.28,-276.94 h -135.22 l 73.78,295.17 c 2.68,10.71 -3.81,21.57 -14.55,24.25 -10.72,2.68 -21.58,-3.84 -24.25,-14.56 L 1873.55,5740 h -137.87 l 72.72,254.51 c 3.03,10.6 -3.11,21.7 -13.74,24.72 -10.63,3.04 -21.69,-3.11 -24.73,-13.74 L 1694.08,5740 h -118.41 l 72.72,254.52 c 3.04,10.61 -3.12,21.71 -13.73,24.72 -10.63,3.04 -21.7,-3.11 -24.73,-13.74 L 1534.07,5740 h -56.62 l -234.14,234.14 c -6.47,6.47 -16.51,7.72 -24.38,3.05 -7.86,-4.68 -11.54,-14.1 -8.95,-22.87 51.81,-174.84 51.98,-332.04 0.5,-467.2 -2.86,-7.47 -0.94,-15.77 4.55,-21.26 0.98,-0.98 2.08,-1.87 3.26,-2.64 7.93,-5.14 18.35,-4.03 25.02,2.64 L 1477.45,5700 h 56.63 l 75.85,-265.49 c 0.96,-3.37 2.75,-6.31 5.07,-8.63 4.97,-4.97 12.41,-7.17 19.64,-5.1 10.63,3.03 16.78,14.1 13.74,24.73 l -72.7,254.49 h 118.4 l 75.86,-265.49 c 0.96,-3.37 2.75,-6.31 5.07,-8.63 4.97,-4.97 12.41,-7.17 19.65,-5.1 10.62,3.03 16.78,14.1 13.73,24.73 L 1735.68,5700 h 137.87 l 76.21,-304.84 c 0.91,-3.65 2.78,-6.81 5.25,-9.28 4.81,-4.81 11.93,-7.05 19,-5.28 10.72,2.68 17.24,13.54 14.56,24.25 l -73.79,295.16 H 2050 c 3.09,-92.54 27.32,-185.04 73.27,-276.94 0.97,-1.95 2.25,-3.71 3.75,-5.2 3.68,-3.69 8.75,-5.86 14.14,-5.86 82.28,0 159.61,32.04 217.79,90.21 58.17,58.18 90.21,135.52 90.21,217.79"
         style="fill:#f68f9e;fill-opacity:1;fill-rule:nonzero;stroke:none"
         id="path100" />
      <path
         d="M 5140,760.012 C 5117.91,760 5100,777.91 5100,800 c 0,22.102 17.91,40.012 40,40 22.09,0 40,-17.91 40,-40 0,-22.078 -17.91,-39.988 -40,-39.988 z m 180,-60 c 0,82.269 -32.03,159.609 -90.2,217.777 -58.18,58.191 -135.53,90.221 -217.79,90.221 -7.57,0 -14.51,-4.29 -17.89,-11.069 -45.95,-91.89 -70.19,-184.39 -73.28,-276.941 h -135.22 l 73.78,295.17 c 2.68,10.71 -3.81,21.57 -14.55,24.25 -10.72,2.68 -21.57,-3.84 -24.25,-14.56 L 4744.39,720 h -137.87 l 72.72,254.512 c 3.03,10.597 -3.11,21.699 -13.74,24.718 -10.62,3.04 -21.69,-3.109 -24.72,-13.738 L 4564.92,720 h -118.4 l 72.72,254.52 c 3.03,10.609 -3.13,21.71 -13.74,24.722 -10.63,3.038 -21.7,-3.113 -24.73,-13.742 L 4404.92,720 h -56.63 l -234.14,234.141 c -6.47,6.468 -16.51,7.718 -24.38,3.05 -7.86,-4.679 -11.54,-14.101 -8.95,-22.871 51.81,-174.84 51.98,-332.039 0.51,-467.199 -2.86,-7.469 -0.94,-15.769 4.54,-21.262 0.98,-0.98 2.08,-1.871 3.27,-2.64 7.92,-5.137 18.34,-4.028 25.01,2.64 L 4348.29,680 h 56.63 l 75.85,-265.488 c 0.96,-3.371 2.75,-6.313 5.07,-8.633 4.97,-4.969 12.42,-7.168 19.65,-5.098 10.62,3.028 16.78,14.098 13.73,24.731 L 4446.52,680 h 118.41 l 75.85,-265.488 c 0.96,-3.371 2.75,-6.313 5.07,-8.633 4.97,-4.969 12.42,-7.168 19.65,-5.098 10.62,3.028 16.78,14.098 13.73,24.731 L 4606.52,680 l 137.87,0.012 76.22,-304.852 c 0.91,-3.648 2.77,-6.808 5.24,-9.281 4.81,-4.809 11.94,-7.047 19.01,-5.277 10.71,2.679 17.23,13.539 14.55,24.25 l -73.79,295.16 h 135.22 c 3.09,-92.543 27.32,-185.043 73.27,-276.942 0.97,-1.949 2.26,-3.711 3.75,-5.199 3.69,-3.691 8.75,-5.859 14.14,-5.859 82.28,0 159.62,32.039 217.79,90.207 58.17,58.179 90.21,135.519 90.21,217.793"
         style="fill:#d8d7d5;fill-opacity:1;fill-rule:nonzero;stroke:none"
         id="path102" />
      <path
         d="m 3444.93,2777.33 c -15.62,15.62 -15.62,40.94 0,56.56 15.62,15.63 40.95,15.63 56.57,0 15.62,-15.62 15.62,-40.94 0,-56.56 -15.62,-15.62 -40.95,-15.62 -56.57,0 z m 84.86,-169.7 c 58.17,58.16 90.21,135.51 90.21,217.77 0,82.29 -32.04,159.63 -90.21,217.8 -5.36,5.35 -13.29,7.22 -20.47,4.82 -97.48,-32.49 -180.02,-80.76 -247.65,-144.01 l -95.61,95.61 260.88,156.54 c 9.48,5.69 12.56,17.95 6.86,27.45 -5.68,9.47 -17.97,12.54 -27.44,6.85 l -269.45,-161.68 -97.5,97.49 231.39,128.55 c 9.64,5.35 13.15,17.54 7.76,27.18 -5.36,9.67 -17.53,13.15 -27.19,7.78 l -241.37,-134.1 -83.73,83.73 231.4,128.55 c 9.64,5.35 13.14,17.56 7.76,27.19 -5.36,9.67 -17.54,13.14 -27.2,7.77 l -241.37,-134.1 -40.04,40.04 v 331.13 c 0,9.14 -6.21,17.13 -15.08,19.4 -8.87,2.24 -18.14,-1.82 -22.5,-9.85 -87,-160.27 -198.04,-271.54 -330.01,-330.72 -7.31,-3.26 -11.82,-10.49 -11.82,-18.24 0,-1.39 0.15,-2.79 0.44,-4.18 1.97,-9.24 10.13,-15.82 19.56,-15.82 h 331.13 l 40.04,-40.05 -134.1,-241.36 c -1.71,-3.06 -2.52,-6.4 -2.52,-9.69 0,-7.03 3.71,-13.84 10.29,-17.5 9.65,-5.37 21.83,-1.89 27.19,7.78 l 128.55,231.36 83.73,-83.72 -134.09,-241.37 c -1.71,-3.07 -2.52,-6.41 -2.52,-9.69 0,-7.03 3.71,-13.85 10.28,-17.5 9.66,-5.37 21.84,-1.89 27.2,7.77 l 128.54,231.38 97.49,-97.49 -161.67,-269.45 c -1.93,-3.23 -2.85,-6.78 -2.85,-10.28 0,-6.79 3.46,-13.41 9.71,-17.16 9.47,-5.69 21.76,-2.62 27.44,6.85 l 156.53,260.89 95.61,-95.62 c -63.25,-67.61 -111.52,-150.16 -144.01,-247.63 -0.7,-2.07 -1.03,-4.22 -1.03,-6.33 0,-5.21 2.05,-10.33 5.86,-14.14 58.17,-58.18 135.52,-90.22 217.78,-90.22 82.28,0 159.62,32.04 217.8,90.22"
         style="fill:#d8d7d5;fill-opacity:1;fill-rule:nonzero;stroke:none"
         id="path104" />
      <path
         d="m 4140,5440.01 c 22.09,0 40,-17.91 40,-40 0,-22.09 -17.91,-40 -40,-40 -22.09,0 -40,17.91 -40,40 0,22.09 17.91,40 40,40 z m -180,60 c 0,-82.27 32.03,-159.61 90.2,-217.78 58.18,-58.19 135.53,-90.22 217.79,-90.22 7.57,0 14.51,4.29 17.89,11.07 45.95,91.89 70.19,184.39 73.28,276.93 l 135.22,0.01 -73.78,-295.17 c -2.68,-10.71 3.81,-21.57 14.55,-24.25 10.72,-2.68 21.57,3.84 24.25,14.56 l 76.21,304.86 h 137.87 l -72.72,-254.51 c -3.03,-10.61 3.11,-21.7 13.74,-24.72 10.62,-3.04 21.69,3.11 24.72,13.74 l 75.86,265.49 h 118.4 l -72.72,-254.52 c -3.03,-10.61 3.13,-21.71 13.74,-24.72 10.63,-3.04 21.7,3.11 24.73,13.74 l 75.85,265.5 h 56.63 l 234.14,-234.14 c 6.47,-6.47 16.51,-7.72 24.38,-3.06 7.86,4.68 11.54,14.11 8.95,22.87 -51.81,174.85 -51.98,332.05 -0.51,467.21 2.86,7.47 0.94,15.77 -4.54,21.26 -0.98,0.98 -2.08,1.87 -3.27,2.64 -7.92,5.14 -18.34,4.03 -25.01,-2.64 l -234.14,-234.14 h -56.63 l -75.85,265.49 c -0.96,3.37 -2.75,6.31 -5.07,8.63 -4.97,4.97 -12.42,7.17 -19.65,5.1 -10.62,-3.03 -16.78,-14.1 -13.73,-24.73 l 72.7,-254.49 h -118.41 l -75.85,265.49 c -0.96,3.37 -2.75,6.31 -5.07,8.63 -4.97,4.97 -12.42,7.17 -19.65,5.1 -10.62,-3.03 -16.78,-14.1 -13.73,-24.73 l 72.71,-254.5 h -137.87 l -76.22,304.85 c -0.91,3.65 -2.77,6.81 -5.24,9.28 -4.81,4.81 -11.94,7.04 -19.01,5.28 -10.71,-2.68 -17.23,-13.54 -14.55,-24.25 l 73.79,-295.16 h -135.22 c -3.09,92.54 -27.32,185.04 -73.27,276.94 -0.97,1.95 -2.26,3.71 -3.75,5.2 -3.69,3.69 -8.75,5.86 -14.14,5.86 -82.28,0 -159.62,-32.04 -217.79,-90.21 -58.17,-58.18 -90.21,-135.52 -90.21,-217.79"
         style="fill:#d8d7d5;fill-opacity:1;fill-rule:nonzero;stroke:none"
         id="path106" />
      <path
         d="m 540.008,500 c -0.004,22.09 17.906,40 39.996,40 22.094,0 40.004,-17.91 40,-40 0,-22.09 -17.91,-40 -40,-40 -22.09,0 -39.996,17.91 -39.996,40 z M 480.012,320 c 82.261,0 159.613,32.031 217.781,90.199 58.187,58.18 90.219,135.531 90.211,217.793 0,7.571 -4.281,14.508 -11.063,17.887 -91.894,45.953 -184.394,70.191 -276.937,73.281 v 135.219 l 295.164,-73.777 c 10.715,-2.68 21.57,3.808 24.25,14.55 2.68,10.719 -3.84,21.567 -14.559,24.246 L 500.004,895.609 500,1033.48 754.516,960.762 c 10.597,-3.032 21.695,3.109 24.714,13.738 3.043,10.621 -3.109,21.691 -13.738,24.719 L 500,1075.08 l -0.004,118.4 254.524,-72.72 c 10.609,-3.03 21.71,3.13 24.714,13.74 3.047,10.63 -3.105,21.7 -13.734,24.73 l -265.504,75.85 v 56.63 l 234.149,234.14 c 6.46,6.47 7.718,16.51 3.05,24.38 -4.679,7.86 -14.105,11.54 -22.871,8.95 -174.847,-51.81 -332.043,-51.98 -467.207,-0.51 -7.472,2.86 -15.773,0.94 -21.254,-4.54 -0.984,-0.98 -1.871,-2.08 -2.644,-3.27 -5.141,-7.92 -4.028,-18.34 2.644,-25.01 L 460,1291.71 v -56.63 l -265.488,-75.85 c -3.375,-0.96 -6.313,-2.75 -8.633,-5.07 -4.973,-4.97 -7.164,-12.42 -5.102,-19.65 3.032,-10.62 14.102,-16.78 24.727,-13.73 l 254.5,72.7 V 1075.07 L 194.512,999.219 c -3.375,-0.957 -6.313,-2.75 -8.633,-5.071 -4.973,-4.968 -7.164,-12.418 -5.102,-19.648 3.032,-10.621 14.102,-16.781 24.727,-13.73 l 254.5,72.71 0.004,-137.871 -304.848,-76.218 c -3.648,-0.911 -6.808,-2.77 -9.285,-5.243 -4.805,-4.808 -7.043,-11.937 -5.273,-19.007 2.679,-10.711 13.535,-17.231 24.253,-14.551 l 295.153,73.789 V 719.16 c -92.535,-3.09 -185.035,-27.32 -276.938,-73.269 -1.953,-0.969 -3.711,-2.262 -5.203,-3.75 -3.683,-3.692 -5.851,-8.75 -5.851,-14.141 -0.008,-82.281 32.031,-159.621 90.203,-217.789 C 320.395,352.039 397.738,320 480.012,320"
         style="fill:#d8d7d5;fill-opacity:1;fill-rule:nonzero;stroke:none"
         id="path108" />
      <path
         d="m 1184.22,6682.38 c -32.3,32.32 -32.26,84.88 0,117.17 l 34.38,34.39 c 3.75,3.75 5.76,10.71 5.76,16 0,2.3 0.19,4.59 0.37,6.85 0.04,0.51 0.06,1.04 0.06,1.55 0,5.29 -2.09,10.37 -5.86,14.14 l -34.71,34.71 c -15.57,15.56 -24.14,36.38 -24.14,58.59 0,22.21 8.57,43.02 24.14,58.6 32.31,32.3 84.88,32.3 117.19,0 l 85.7,-85.73 c 3.75,-3.75 8.83,-5.86 14.14,-5.86 h 34.55 c 45.69,0 82.85,-37.17 82.85,-82.85 0,-45.68 -37.16,-82.85 -82.85,-82.85 h -41.4 c -5.32,0 -10.39,-2.11 -14.14,-5.86 l -78.85,-78.85 c -32.31,-32.3 -84.88,-32.3 -117.19,0 z m 218.46,44.71 h 33.12 c 67.74,0 122.85,55.11 122.85,122.85 0,67.73 -55.11,122.85 -122.85,122.85 h -26.27 l -79.84,79.87 c -47.91,47.9 -125.84,47.9 -173.75,0 -23.95,-23.95 -35.94,-55.42 -35.94,-86.88 0,-31.47 11.99,-62.93 35.94,-86.88 l 25.53,-25.52 -25.53,-25.55 c -47.89,-47.89 -47.87,-125.84 0,-173.73 47.91,-47.91 125.84,-47.91 173.75,0 l 72.99,72.99"
         style="fill:#f68f9e;fill-opacity:1;fill-rule:nonzero;stroke:none"
         id="path110" />
      <path
         d="m 1530.33,7067.22 c -5.25,3.03 -8.69,11.14 -8.32,23.6 0.08,15.91 5.96,35.14 16.12,52.73 10.15,17.6 23.86,32.29 37.61,40.32 10.14,5.92 19.34,7.63 24.59,4.59 5.22,-3.01 8.32,-11.71 8.32,-23.3 0,-0.11 0,-0.2 0,-0.3 -0.07,-15.92 -5.93,-35.14 -16.09,-52.73 -21.37,-37 -51.13,-51.31 -62.23,-44.91 z m -20,-34.64 c 34.69,-20.03 86.02,6.15 116.88,59.55 13.73,23.79 21.35,49.55 21.44,72.55 0,0.16 0,0.3 0,0.45 0,26.47 -10.31,47.58 -28.32,57.97 -18.1,10.45 -41.69,8.75 -64.74,-4.68 -19.88,-11.61 -38.38,-31.08 -52.11,-54.87 -13.73,-23.79 -21.35,-49.55 -21.45,-72.55 -0.02,-0.16 -0.02,-0.3 -0.02,-0.46 0,-26.46 10.32,-47.56 28.32,-57.96"
         style="fill:#f68f9e;fill-opacity:1;fill-rule:nonzero;stroke:none"
         id="path112" />
      <path
         d="m 1575.74,6516.01 c -13.75,8.03 -27.46,22.72 -37.61,40.32 -10.16,17.59 -16.04,36.81 -16.12,52.73 0.3,12.11 3.07,20.57 8.32,23.59 11.1,6.41 40.86,-7.91 62.23,-44.9 10.16,-17.6 16.02,-36.81 16.09,-52.73 0.08,-11.98 -3.06,-20.57 -8.32,-23.6 -5.25,-3.04 -14.45,-1.32 -24.59,4.59 z m 44.59,-39.24 c 18.01,10.4 28.32,31.51 28.32,57.97 0,0.16 0,0.3 0,0.45 -0.09,23.01 -7.71,48.77 -21.44,72.56 -30.86,53.4 -82.19,79.57 -116.88,59.55 -18,-10.41 -28.32,-31.5 -28.32,-57.97 0,-0.15 0,-0.29 0.02,-0.45 0.1,-23 7.72,-48.77 21.45,-72.55 13.73,-23.79 32.23,-43.27 52.11,-54.87 23.05,-13.44 46.64,-15.13 64.74,-4.69"
         style="fill:#f68f9e;fill-opacity:1;fill-rule:nonzero;stroke:none"
         id="path114" />
      <path
         d="m 1839.67,6986.56 c 0.25,-1.46 0.37,-2.95 0.37,-4.45 0,-26.17 -37.81,-60.16 -97.38,-70.69 -29.86,-5.25 -60.04,-3.26 -82.81,5.47 -19.36,7.4 -31.74,19.06 -34.03,31.97 -2.17,13.13 5.41,28.11 21.04,41.68 18.42,16 46.11,28.19 75.97,33.46 62.99,11.09 112.13,-10.82 116.84,-37.44 z m -219.04,34.2 c -23.03,-20 -35.24,-43.4 -35.24,-66.95 0,-3.97 0.35,-7.93 1.06,-11.88 4.82,-27.5 25.82,-49.65 59.08,-62.4 29.78,-11.41 66.74,-14.06 104.08,-7.48 82.03,14.47 139.16,67.56 129.44,121.46 -9.46,53.63 -81.14,84.34 -163.17,69.87 -37.34,-6.57 -71.17,-21.72 -95.25,-42.62"
         style="fill:#f68f9e;fill-opacity:1;fill-rule:nonzero;stroke:none"
         id="path116" />
      <path
         d="m 1742.66,6788.45 c 62.99,-11.13 101.64,-48.24 97.01,-75.13 -4.71,-26.62 -53.85,-48.54 -116.84,-37.44 -29.86,5.27 -57.55,17.46 -75.97,33.45 -15.65,13.58 -23.44,28.62 -21.02,41.7 2.27,12.89 14.65,24.55 34.01,31.96 22.77,8.73 52.95,10.72 82.81,5.46 z m -156.21,-30.48 c -0.71,-3.97 -1.06,-7.93 -1.06,-11.9 0,-23.55 12.21,-46.95 35.24,-66.95 24.08,-20.9 57.91,-36.06 95.25,-42.62 82.03,-14.47 153.71,16.23 163.17,69.86 9.72,53.93 -47.41,107 -129.44,121.47 -37.34,6.58 -74.3,3.93 -104.08,-7.48 -33.26,-12.75 -54.26,-34.9 -59.08,-62.38"
         style="fill:#f68f9e;fill-opacity:1;fill-rule:nonzero;stroke:none"
         id="path118" />
      <path
         d="m 6167.62,64.2188 c -32.32,-32.3086 -84.88,-32.2696 -117.17,0 l -34.39,34.371 c -3.75,3.7502 -10.71,5.7692 -16,5.7692 -2.3,0 -4.59,0.192 -6.85,0.371 -0.51,0.04 -1.04,0.059 -1.55,0.059 -5.29,0 -10.37,-2.09 -14.14,-5.8593 l -34.71,-34.7109 c -15.56,-15.5704 -36.38,-24.1368 -58.59,-24.1368 -22.21,0 -43.03,8.5664 -58.59,24.1368 -32.31,32.3007 -32.31,84.8832 0,117.1912 l 85.72,85.699 c 3.75,3.75 5.86,8.832 5.86,14.141 v 34.551 c 0,45.679 37.17,82.847 82.85,82.847 45.68,0 82.85,-37.168 82.85,-82.847 v -41.41 c 0,-5.309 2.11,-10.391 5.86,-14.141 l 78.85,-78.84 c 32.3,-32.308 32.3,-84.8905 0,-117.1912 z M 6122.91,282.68 v 33.121 c 0,67.738 -55.11,122.847 -122.85,122.847 -67.73,0 -122.85,-55.109 -122.85,-122.847 v -26.27 l -79.86,-79.84 c -47.91,-47.91 -47.91,-125.8394 0,-173.7496 C 5821.29,11.9883 5852.76,0 5884.22,0 c 31.47,0 62.93,11.9883 86.88,35.9414 l 25.52,25.5195 25.55,-25.5195 c 47.89,-47.8906 125.84,-47.8711 173.73,0 47.91,47.9102 47.91,125.8396 0,173.7496 l -72.99,72.989"
         style="fill:#f68f9e;fill-opacity:1;fill-rule:nonzero;stroke:none"
         id="path120" />
      <path
         d="m 5782.78,410.332 c -3.03,-5.25 -11.14,-8.691 -23.6,-8.32 -15.92,0.078 -35.13,5.957 -52.73,16.109 -17.6,10.16 -32.29,23.867 -40.31,37.617 -5.92,10.141 -7.64,19.344 -4.59,24.594 3,5.219 11.69,8.316 23.3,8.316 0.09,0 0.19,0 0.29,0 15.92,-0.078 35.14,-5.937 52.73,-16.089 37,-21.368 51.31,-51.129 44.91,-62.227 z m 34.64,-20 c 20.02,34.688 -6.15,86.02 -59.55,116.879 -23.79,13.73 -49.55,21.34 -72.56,21.437 -0.15,0 -0.29,0 -0.44,0 -26.47,0 -47.58,-10.308 -57.97,-28.316 -10.45,-18.102 -8.75,-41.703 4.68,-64.742 11.61,-19.891 31.08,-38.379 54.87,-52.11 23.79,-13.73 49.55,-21.351 72.56,-21.449 0.15,-0.019 0.29,-0.019 0.45,-0.019 26.46,0 47.55,10.308 57.96,28.32"
         style="fill:#f68f9e;fill-opacity:1;fill-rule:nonzero;stroke:none"
         id="path122" />
      <path
         d="m 6333.99,455.738 c -8.03,-13.75 -22.72,-27.457 -40.32,-37.617 -17.59,-10.152 -36.81,-16.031 -52.73,-16.109 -12.11,0.289 -20.57,3.07 -23.59,8.32 -6.41,11.098 7.91,40.859 44.9,62.227 17.6,10.152 36.81,16.011 52.73,16.089 11.98,0.082 20.57,-3.058 23.6,-8.316 3.04,-5.25 1.32,-14.453 -4.59,-24.594 z m 39.24,44.594 c -10.4,18.008 -31.51,28.316 -57.97,28.316 -0.16,0 -0.3,0 -0.45,0 -23.01,-0.097 -48.77,-7.707 -72.56,-21.437 -53.4,-30.859 -79.57,-82.191 -59.55,-116.879 10.41,-18.012 31.5,-28.32 57.97,-28.32 0.15,0 0.29,0 0.45,0.019 23,0.098 48.77,7.719 72.55,21.449 23.79,13.731 43.27,32.219 54.87,52.11 13.44,23.039 15.13,46.64 4.69,64.742"
         style="fill:#f68f9e;fill-opacity:1;fill-rule:nonzero;stroke:none"
         id="path124" />
      <path
         d="m 5863.44,719.672 c 1.46,0.25 2.95,0.367 4.45,0.367 26.17,0 60.16,-37.809 70.69,-97.379 5.25,-29.871 3.26,-60.039 -5.47,-82.82 -7.4,-19.348 -19.06,-31.731 -31.97,-34.02 -13.13,-2.172 -28.11,5.41 -41.68,21.039 -16,18.411 -28.19,46.11 -33.46,75.973 -11.1,62.988 10.82,112.129 37.44,116.84 z m -34.2,-219.051 c 20,-23.019 43.4,-35.23 66.95,-35.23 3.97,0 7.93,0.347 11.88,1.058 27.5,4.821 49.65,25.821 62.4,59.082 11.41,29.778 14.06,66.739 7.48,104.078 -14.47,82.032 -67.56,139.161 -121.46,129.43 -53.64,-9.449 -84.34,-81.129 -69.87,-163.16 6.57,-37.34 21.72,-71.168 42.62,-95.258"
         style="fill:#f68f9e;fill-opacity:1;fill-rule:nonzero;stroke:none"
         id="path126" />
      <path
         d="m 6061.55,622.66 c 11.13,62.981 48.24,101.641 75.13,97.012 26.62,-4.711 48.54,-53.852 37.44,-116.84 -5.27,-29.863 -17.46,-57.562 -33.45,-75.973 -13.58,-15.648 -28.62,-23.437 -41.7,-21.019 -12.89,2.269 -24.55,14.652 -31.96,34 -8.73,22.781 -10.72,52.949 -5.46,82.82 z m 30.48,-156.211 c 3.97,-0.711 7.93,-1.058 11.9,-1.058 23.55,0 46.95,12.211 66.95,35.23 20.9,24.09 36.06,57.918 42.62,95.258 14.47,82.031 -16.23,153.711 -69.86,163.16 -53.93,9.731 -107,-47.398 -121.47,-129.43 -6.58,-37.339 -3.93,-74.3 7.48,-104.078 12.75,-33.261 34.9,-54.261 62.38,-59.082"
         style="fill:#f68f9e;fill-opacity:1;fill-rule:nonzero;stroke:none"
         id="path128" />
      <path
         d="m 3004.1,1272.5 c -32.31,32.33 -32.27,84.89 0,117.17 l 34.37,34.39 c 3.75,3.75 5.76,10.71 5.76,16 0,2.31 0.2,4.59 0.37,6.86 0.04,0.5 0.06,1.03 0.06,1.54 0,5.29 -2.09,10.37 -5.86,14.14 l -34.7,34.71 c -15.57,15.56 -24.14,36.38 -24.14,58.59 0,22.21 8.57,43.03 24.14,58.59 32.3,32.31 84.88,32.31 117.18,0 l 85.71,-85.72 c 3.75,-3.75 8.83,-5.86 14.14,-5.86 h 34.55 c 45.68,0 82.85,-37.17 82.85,-82.85 0,-45.68 -37.17,-82.85 -82.85,-82.85 h -41.41 c -5.31,0 -10.39,-2.11 -14.14,-5.86 l -78.85,-78.85 c -32.3,-32.3 -84.88,-32.3 -117.18,0 z m 218.45,44.71 h 33.13 c 67.73,0 122.85,55.12 122.85,122.85 0,67.74 -55.12,122.85 -122.85,122.85 h -26.27 l -79.84,79.87 c -47.91,47.91 -125.84,47.91 -173.75,0 -23.95,-23.95 -35.94,-55.41 -35.94,-86.88 0,-31.46 11.99,-62.93 35.94,-86.87 l 25.52,-25.53 -25.52,-25.55 c -47.9,-47.89 -47.88,-125.84 0,-173.73 47.91,-47.91 125.84,-47.91 173.75,0 l 72.98,72.99"
         style="fill:#f68f9e;fill-opacity:1;fill-rule:nonzero;stroke:none"
         id="path130" />
      <path
         d="m 3350.21,1657.35 c -5.25,3.02 -8.69,11.13 -8.32,23.59 0.08,15.92 5.96,35.14 16.11,52.73 10.16,17.6 23.87,32.29 37.62,40.32 10.14,5.91 19.34,7.63 24.59,4.59 5.21,-3.01 8.32,-11.7 8.32,-23.3 0,-0.1 0,-0.2 0,-0.3 -0.08,-15.92 -5.94,-35.13 -16.09,-52.73 -21.37,-36.99 -51.14,-51.31 -62.23,-44.9 z m -20,-34.65 c 34.69,-20.02 86.02,6.15 116.87,59.55 13.74,23.79 21.35,49.55 21.45,72.56 0,0.15 0,0.29 0,0.45 0,26.46 -10.31,47.57 -28.32,57.97 -18.11,10.44 -41.7,8.75 -64.75,-4.69 -19.88,-11.6 -38.38,-31.08 -52.11,-54.87 -13.73,-23.78 -21.34,-49.55 -21.44,-72.55 -0.02,-0.16 -0.02,-0.3 -0.02,-0.45 0,-26.47 10.31,-47.56 28.32,-57.97"
         style="fill:#f68f9e;fill-opacity:1;fill-rule:nonzero;stroke:none"
         id="path132" />
      <path
         d="m 3395.62,1106.14 c -13.75,8.02 -27.46,22.71 -37.62,40.31 -10.15,17.6 -16.03,36.81 -16.11,52.73 0.29,12.11 3.07,20.57 8.32,23.6 11.09,6.4 40.86,-7.91 62.23,-44.91 10.15,-17.59 16.01,-36.81 16.09,-52.73 0.08,-11.97 -3.07,-20.57 -8.32,-23.59 -5.25,-3.05 -14.45,-1.33 -24.59,4.59 z m 44.59,-39.24 c 18.01,10.39 28.32,31.5 28.32,57.97 0,0.15 0,0.29 0,0.44 -0.1,23.01 -7.71,48.77 -21.45,72.56 -30.85,53.4 -82.18,79.57 -116.87,59.55 -18.01,-10.41 -28.32,-31.5 -28.32,-57.96 0,-0.16 0,-0.3 0.02,-0.45 0.1,-23.01 7.71,-48.77 21.44,-72.56 13.73,-23.79 32.23,-43.26 52.11,-54.87 23.05,-13.43 46.64,-15.13 64.75,-4.68"
         style="fill:#f68f9e;fill-opacity:1;fill-rule:nonzero;stroke:none"
         id="path134" />
      <path
         d="m 3659.55,1576.68 c 0.25,-1.46 0.37,-2.95 0.37,-4.45 0,-26.17 -37.82,-60.16 -97.39,-70.68 -29.86,-5.26 -60.03,-3.27 -82.81,5.46 -19.35,7.41 -31.74,19.07 -34.02,31.98 -2.17,13.12 5.41,28.1 21.03,41.68 18.42,15.99 46.12,28.18 75.98,33.45 62.99,11.1 112.13,-10.82 116.84,-37.44 z m -219.05,34.2 c -23.02,-20 -35.23,-43.4 -35.23,-66.95 0,-3.97 0.35,-7.93 1.05,-11.88 4.83,-27.5 25.82,-49.65 59.09,-62.4 29.78,-11.41 66.73,-14.06 104.08,-7.48 82.03,14.47 139.16,67.56 129.43,121.47 -9.45,53.63 -81.13,84.33 -163.16,69.86 -37.35,-6.56 -71.18,-21.72 -95.26,-42.62"
         style="fill:#f68f9e;fill-opacity:1;fill-rule:nonzero;stroke:none"
         id="path136" />
      <path
         d="m 3562.53,1378.58 c 62.99,-11.14 101.64,-48.25 97.02,-75.14 -4.71,-26.62 -53.85,-48.54 -116.84,-37.44 -29.86,5.27 -57.56,17.46 -75.98,33.46 -15.64,13.57 -23.43,28.61 -21.01,41.69 2.26,12.9 14.65,24.56 34,31.96 22.78,8.73 52.95,10.72 82.81,5.47 z m -156.21,-30.49 c -0.7,-3.97 -1.05,-7.93 -1.05,-11.9 0,-23.55 12.21,-46.95 35.23,-66.95 24.08,-20.9 57.91,-36.05 95.26,-42.62 82.03,-14.47 153.71,16.23 163.16,69.87 9.73,53.92 -47.4,106.99 -129.43,121.46 -37.35,6.58 -74.3,3.93 -104.08,-7.48 -33.27,-12.75 -54.26,-34.9 -59.09,-62.38"
         style="fill:#f68f9e;fill-opacity:1;fill-rule:nonzero;stroke:none"
         id="path138" />
      <path
         d="m 2146.9,4903.87 c 45.7,-0.02 82.84,-37.21 82.85,-82.85 l 0.02,-48.63 c 0,-5.3 3.49,-11.64 7.23,-15.39 1.64,-1.62 3.11,-3.38 4.59,-5.11 0.33,-0.38 0.69,-0.77 1.05,-1.13 3.74,-3.74 8.81,-5.85 14.14,-5.85 h 49.08 c 22.02,0 42.8,-8.66 58.51,-24.37 15.7,-15.7 24.36,-36.48 24.36,-58.5 0,-45.68 -37.18,-82.86 -82.87,-82.86 l -121.21,0.01 c -5.3,0 -10.39,-2.1 -14.14,-5.85 l -24.44,-24.43 c -32.3,-32.31 -84.86,-32.31 -117.16,0 -32.31,32.3 -32.31,84.86 0,117.16 l 29.27,29.28 c 3.76,3.76 5.86,8.84 5.86,14.15 V 4821 c 0,45.69 37.18,82.87 82.86,82.87 z m -122.86,-186.09 -23.42,-23.42 c -47.9,-47.9 -47.9,-125.84 0,-173.74 47.9,-47.9 125.84,-47.9 173.74,0 l 18.57,18.58 112.93,-0.02 c 67.76,0 122.87,55.11 122.87,122.86 0,33.87 -13.77,64.6 -36.02,86.84 -22.25,22.25 -52.98,36.02 -86.85,36.02 h -36.1 l -0.01,36.12 c 0,67.73 -55.13,122.83 -122.85,122.84 -67.75,0 -122.86,-55.1 -122.86,-122.86 v -103.22"
         style="fill:#f68f9e;fill-opacity:1;fill-rule:nonzero;stroke:none"
         id="path140" />
      <path
         d="m 2174.29,4387 c 5.86,1.58 14.02,-1.72 22.57,-10.8 11.2,-11.31 20.63,-29.05 25.89,-48.68 5.27,-19.62 5.95,-39.71 1.91,-55.11 -2.99,-11.35 -8.28,-19.07 -14.14,-20.63 -5.82,-1.56 -14.16,2.39 -22.36,10.6 -0.07,0.06 -0.14,0.13 -0.21,0.2 -11.2,11.31 -20.65,29.05 -25.91,48.67 -11.05,41.27 -0.12,72.44 12.25,75.75 z m -10.36,38.64 c -38.68,-10.37 -56.47,-65.17 -40.53,-124.75 7.11,-26.53 19.94,-50.13 36.14,-66.47 0.11,-0.11 0.21,-0.2 0.32,-0.32 18.71,-18.71 40.93,-26.35 61.01,-20.96 20.19,5.41 35.68,23.3 42.47,49.1 5.86,22.26 5.17,49.11 -1.95,75.64 -7.11,26.53 -19.94,50.13 -36.14,66.47 -0.09,0.12 -0.19,0.22 -0.3,0.33 -18.71,18.71 -40.92,26.34 -61.02,20.96"
         style="fill:#f68f9e;fill-opacity:1;fill-rule:nonzero;stroke:none"
         id="path142" />
      <path
         d="m 1752.41,4744.66 c 15.4,4.04 35.49,3.36 55.11,-1.91 19.63,-5.26 37.37,-14.69 48.68,-25.89 8.36,-8.77 12.38,-16.71 10.8,-22.57 -3.31,-12.37 -34.48,-23.3 -75.75,-12.25 -19.62,5.26 -37.36,14.71 -48.67,25.91 -8.52,8.41 -12.37,16.71 -10.8,22.57 1.56,5.86 9.28,11.15 20.63,14.14 z m -59.27,-3.79 c -5.39,-20.08 2.25,-42.3 20.96,-61.01 0.12,-0.11 0.21,-0.21 0.32,-0.32 16.34,-16.2 39.94,-29.03 66.47,-36.14 59.58,-15.94 114.38,1.85 124.75,40.53 5.38,20.1 -2.25,42.31 -20.96,61.02 -0.11,0.11 -0.21,0.21 -0.33,0.3 -16.34,16.2 -39.94,29.03 -66.47,36.14 -26.53,7.12 -53.38,7.81 -75.64,1.95 -25.8,-6.79 -43.69,-22.28 -49.1,-42.47"
         style="fill:#f68f9e;fill-opacity:1;fill-rule:nonzero;stroke:none"
         id="path144" />
      <path
         d="m 1898.52,4225.31 c -1.22,0.85 -2.35,1.82 -3.41,2.88 -18.51,18.51 -15.8,69.28 18.88,118.84 17.4,24.84 40.14,44.76 62.42,54.7 18.92,8.45 35.92,8.96 46.67,1.45 10.81,-7.75 16.05,-23.7 14.6,-44.35 -1.72,-24.34 -12.68,-52.54 -30.07,-77.38 -36.69,-52.39 -86.94,-71.64 -109.09,-56.14 z m 179.07,130.7 c 2.14,30.43 -5.77,55.6 -22.43,72.26 -2.8,2.8 -5.86,5.36 -9.14,7.65 -22.86,16.04 -53.37,16.85 -85.91,2.35 -29.12,-13 -57.13,-37.25 -78.88,-68.31 -47.77,-68.24 -50.63,-146.17 -5.64,-177.41 44.61,-31.24 117.01,-2.27 164.78,65.97 21.76,31.05 34.97,65.69 37.22,97.49"
         style="fill:#f68f9e;fill-opacity:1;fill-rule:nonzero;stroke:none"
         id="path146" />
      <path
         d="m 1827.03,4433.99 c -52.41,-36.67 -105.98,-37.76 -121.72,-15.47 -15.5,22.15 3.75,72.4 56.14,109.09 24.84,17.39 53.04,28.35 77.38,30.07 20.66,1.46 36.8,-3.66 44.35,-14.63 7.51,-10.72 7,-27.72 -1.45,-46.64 -9.94,-22.28 -29.86,-45.02 -54.7,-62.42 z m 88.91,132.01 c -2.31,3.3 -4.87,6.36 -7.67,9.16 -16.66,16.66 -41.83,24.57 -72.26,22.43 -31.8,-2.25 -66.44,-15.46 -97.49,-37.22 -68.24,-47.77 -97.21,-120.17 -65.97,-164.78 31.25,-45.01 109.17,-42.13 177.41,5.64 31.06,21.75 55.31,49.76 68.31,78.88 14.5,32.54 13.69,63.05 -2.33,85.89"
         style="fill:#f68f9e;fill-opacity:1;fill-rule:nonzero;stroke:none"
         id="path148" />
      <path
         d="m 963.867,2281.82 c -0.015,-45.7 -37.203,-82.84 -82.847,-82.85 l -48.629,-0.01 c -5.305,0 -11.645,-3.5 -15.387,-7.24 -1.629,-1.63 -3.383,-3.11 -5.109,-4.59 -0.387,-0.33 -0.774,-0.68 -1.133,-1.05 -3.742,-3.74 -5.856,-8.81 -5.856,-14.14 v -49.08 c 0,-22.02 -8.656,-42.8 -24.363,-58.5 -15.703,-15.71 -36.484,-24.36 -58.5,-24.36 -45.688,0 -82.863,37.18 -82.863,82.86 l 0.011,121.22 c 0,5.3 -2.097,10.38 -5.855,14.14 l -24.43,24.43 c -32.304,32.3 -32.304,84.87 0,117.17 32.301,32.3 84.867,32.3 117.168,0 l 29.281,-29.28 c 3.754,-3.76 8.836,-5.85 14.141,-5.85 h 111.508 c 45.684,0 82.863,-37.18 82.863,-82.87 z m -186.086,122.86 -23.422,23.42 c -47.894,47.9 -125.843,47.9 -173.738,0 -47.894,-47.89 -47.894,-125.84 0,-173.73 l 18.574,-18.58 -0.011,-112.93 c 0,-67.76 55.101,-122.86 122.859,-122.86 33.863,0 64.594,13.77 86.84,36.02 22.25,22.25 36.019,52.98 36.019,86.84 v 36.1 l 36.118,0.01 c 67.726,0 122.83,55.14 122.84,122.85 0,67.76 -55.098,122.86 -122.856,122.86 H 777.781"
         style="fill:#f68f9e;fill-opacity:1;fill-rule:nonzero;stroke:none"
         id="path150" />
      <path
         d="m 447.004,2254.43 c 1.574,-5.85 -1.727,-14.01 -10.801,-22.56 -11.308,-11.2 -29.058,-20.63 -48.683,-25.9 -19.625,-5.26 -39.704,-5.95 -55.106,-1.9 -11.351,2.98 -19.07,8.27 -20.633,14.14 -1.558,5.81 2.391,14.16 10.594,22.36 0.07,0.07 0.137,0.14 0.207,0.21 11.313,11.2 29.043,20.64 48.672,25.9 41.262,11.05 72.434,0.13 75.75,-12.25 z m 38.641,10.36 c -10.372,38.69 -65.172,56.47 -124.75,40.54 -26.532,-7.12 -50.133,-19.95 -66.473,-36.15 -0.109,-0.11 -0.207,-0.2 -0.317,-0.31 -18.714,-18.72 -26.351,-40.94 -20.964,-61.02 5.414,-20.19 23.297,-35.67 49.093,-42.47 22.266,-5.85 49.114,-5.16 75.645,1.95 26.531,7.11 50.133,19.94 66.469,36.14 0.125,0.1 0.222,0.2 0.332,0.31 18.715,18.71 26.34,40.92 20.965,61.01"
         style="fill:#f68f9e;fill-opacity:1;fill-rule:nonzero;stroke:none"
         id="path152" />
      <path
         d="m 804.656,2676.31 c 4.047,-15.4 3.36,-35.48 -1.906,-55.11 -5.262,-19.62 -14.691,-37.37 -25.891,-48.68 -8.769,-8.35 -16.714,-12.37 -22.57,-10.8 -12.371,3.32 -23.297,34.49 -12.246,75.75 5.258,19.63 14.703,37.36 25.906,48.67 8.41,8.52 16.711,12.38 22.567,10.8 5.867,-1.56 11.16,-9.28 14.14,-20.63 z m -3.781,59.27 c -20.082,5.39 -42.305,-2.25 -61.016,-20.96 -0.109,-0.11 -0.207,-0.21 -0.316,-0.32 -16.203,-16.34 -29.031,-39.94 -36.145,-66.47 -15.937,-59.58 1.852,-114.38 40.536,-124.75 20.093,-5.37 42.3,2.25 61.015,20.96 0.11,0.12 0.207,0.21 0.301,0.33 16.203,16.34 29.031,39.95 36.145,66.48 7.113,26.53 7.8,53.37 1.949,75.64 -6.797,25.8 -22.281,43.68 -42.469,49.09"
         style="fill:#f68f9e;fill-opacity:1;fill-rule:nonzero;stroke:none"
         id="path154" />
      <path
         d="m 285.309,2530.21 c 0.855,1.21 1.824,2.34 2.882,3.41 18.508,18.5 69.278,15.8 118.844,-18.88 24.828,-17.4 44.758,-40.15 54.692,-62.43 8.453,-18.92 8.961,-35.92 1.449,-46.66 -7.75,-10.82 -23.699,-16.05 -44.348,-14.6 -24.332,1.71 -52.535,12.68 -77.379,30.07 -52.383,36.69 -71.636,86.93 -56.14,109.09 z m 130.703,-179.07 c 30.426,-2.14 55.601,5.77 72.258,22.42 2.8,2.81 5.359,5.86 7.652,9.15 16.035,22.85 16.848,53.36 2.348,85.9 -12.997,29.13 -37.25,57.13 -68.309,78.89 -68.238,47.77 -146.172,50.63 -177.41,5.63 -31.242,-44.61 -2.27,-117 65.972,-164.77 31.043,-21.77 65.684,-34.97 97.489,-37.22"
         style="fill:#f68f9e;fill-opacity:1;fill-rule:nonzero;stroke:none"
         id="path156" />
      <path
         d="m 493.988,2601.69 c -36.668,52.41 -37.761,105.98 -15.468,121.73 22.152,15.49 72.398,-3.76 109.089,-56.14 17.391,-24.85 28.352,-53.05 30.067,-77.38 1.461,-20.66 -3.66,-36.81 -14.625,-44.35 -10.719,-7.51 -27.719,-7 -46.641,1.45 -22.277,9.93 -45.019,29.86 -62.422,54.69 z m 132.016,-88.9 c 3.301,2.31 6.351,4.86 9.156,7.67 16.656,16.65 24.57,41.83 22.43,72.25 -2.254,31.81 -15.457,66.45 -37.223,97.49 -47.769,68.24 -120.164,97.22 -164.773,65.98 -45.012,-31.26 -42.137,-109.18 5.633,-177.42 21.753,-31.05 49.761,-55.31 78.886,-68.3 32.539,-14.51 63.047,-13.69 85.891,2.33"
         style="fill:#f68f9e;fill-opacity:1;fill-rule:nonzero;stroke:none"
         id="path158" />
      <path
         d="m 4293.1,3736.13 c -45.7,0.02 -82.84,37.21 -82.85,82.85 l -0.02,48.63 c 0,5.3 -3.49,11.64 -7.23,15.39 -1.64,1.62 -3.11,3.38 -4.59,5.11 -0.33,0.38 -0.69,0.77 -1.05,1.13 -3.74,3.74 -8.81,5.85 -14.14,5.85 h -49.08 c -22.02,0 -42.8,8.66 -58.51,24.37 -15.7,15.7 -24.36,36.48 -24.36,58.5 0,45.68 37.18,82.86 82.87,82.86 l 121.21,-0.01 c 5.3,0 10.39,2.1 14.14,5.85 l 24.44,24.43 c 32.3,32.31 84.86,32.31 117.16,0 32.31,-32.3 32.31,-84.86 0,-117.16 l -29.27,-29.28 c -3.76,-3.76 -5.86,-8.84 -5.86,-14.15 V 3819 c 0,-45.69 -37.18,-82.87 -82.86,-82.87 z m 122.86,186.09 23.42,23.42 c 47.9,47.9 47.9,125.84 0,173.74 -47.9,47.9 -125.84,47.9 -173.74,0 l -18.57,-18.58 -112.93,0.02 c -67.76,0 -122.87,-55.11 -122.87,-122.86 0,-33.87 13.77,-64.6 36.02,-86.84 22.25,-22.25 52.98,-36.02 86.85,-36.02 h 36.1 l 0.01,-36.12 c 0,-67.73 55.13,-122.83 122.85,-122.84 67.75,0 122.86,55.1 122.86,122.86 v 103.22"
         style="fill:#f68f9e;fill-opacity:1;fill-rule:nonzero;stroke:none"
         id="path160" />
      <path
         d="m 4265.71,4253 c -5.86,-1.58 -14.02,1.72 -22.57,10.8 -11.2,11.31 -20.63,29.05 -25.89,48.68 -5.27,19.62 -5.95,39.71 -1.91,55.11 2.99,11.35 8.28,19.07 14.14,20.63 5.82,1.56 14.16,-2.39 22.36,-10.6 0.07,-0.06 0.14,-0.13 0.21,-0.2 11.2,-11.31 20.65,-29.05 25.91,-48.67 11.05,-41.27 0.12,-72.44 -12.25,-75.75 z m 10.36,-38.64 c 38.68,10.37 56.47,65.17 40.53,124.75 -7.11,26.53 -19.94,50.13 -36.14,66.47 -0.11,0.11 -0.21,0.2 -0.32,0.32 -18.71,18.71 -40.93,26.35 -61.01,20.96 -20.19,-5.41 -35.68,-23.3 -42.47,-49.1 -5.86,-22.26 -5.17,-49.11 1.95,-75.64 7.11,-26.53 19.94,-50.13 36.14,-66.47 0.09,-0.12 0.19,-0.22 0.3,-0.33 18.71,-18.71 40.92,-26.34 61.02,-20.96"
         style="fill:#f68f9e;fill-opacity:1;fill-rule:nonzero;stroke:none"
         id="path162" />
      <path
         d="m 4687.59,3895.34 c -15.4,-4.04 -35.49,-3.36 -55.11,1.91 -19.63,5.26 -37.37,14.69 -48.68,25.89 -8.36,8.77 -12.38,16.71 -10.8,22.57 3.31,12.37 34.48,23.3 75.75,12.25 19.62,-5.26 37.36,-14.71 48.67,-25.91 8.52,-8.41 12.37,-16.71 10.8,-22.57 -1.56,-5.86 -9.28,-11.15 -20.63,-14.14 z m 59.27,3.79 c 5.39,20.08 -2.25,42.3 -20.96,61.01 -0.12,0.11 -0.21,0.21 -0.32,0.32 -16.34,16.2 -39.94,29.03 -66.47,36.14 -59.58,15.94 -114.38,-1.85 -124.75,-40.53 -5.38,-20.1 2.25,-42.31 20.96,-61.02 0.11,-0.11 0.21,-0.21 0.33,-0.3 16.34,-16.2 39.94,-29.03 66.47,-36.14 26.53,-7.12 53.38,-7.81 75.64,-1.95 25.8,6.79 43.69,22.28 49.1,42.47"
         style="fill:#f68f9e;fill-opacity:1;fill-rule:nonzero;stroke:none"
         id="path164" />
      <path
         d="m 4541.48,4414.69 c 1.22,-0.85 2.35,-1.82 3.41,-2.88 18.51,-18.51 15.8,-69.28 -18.88,-118.84 -17.4,-24.84 -40.14,-44.76 -62.42,-54.7 -18.92,-8.45 -35.92,-8.96 -46.67,-1.45 -10.81,7.75 -16.05,23.7 -14.6,44.35 1.72,24.34 12.68,52.54 30.07,77.38 36.69,52.39 86.94,71.64 109.09,56.14 z m -179.07,-130.7 c -2.14,-30.43 5.77,-55.6 22.43,-72.26 2.8,-2.8 5.86,-5.36 9.14,-7.65 22.86,-16.04 53.37,-16.85 85.91,-2.35 29.12,13 57.13,37.25 78.88,68.31 47.77,68.24 50.63,146.17 5.64,177.41 -44.61,31.24 -117.01,2.27 -164.78,-65.97 -21.76,-31.05 -34.97,-65.69 -37.22,-97.49"
         style="fill:#f68f9e;fill-opacity:1;fill-rule:nonzero;stroke:none"
         id="path166" />
      <path
         d="m 4612.97,4206.01 c 52.41,36.67 105.98,37.76 121.72,15.47 15.5,-22.15 -3.75,-72.4 -56.14,-109.09 -24.84,-17.39 -53.04,-28.35 -77.38,-30.07 -20.66,-1.46 -36.8,3.66 -44.35,14.63 -7.51,10.72 -7,27.72 1.45,46.64 9.94,22.28 29.86,45.02 54.7,62.42 z M 4524.06,4074 c 2.31,-3.3 4.87,-6.36 7.67,-9.16 16.66,-16.66 41.83,-24.57 72.26,-22.43 31.8,2.25 66.44,15.46 97.49,37.22 68.24,47.77 97.21,120.17 65.97,164.78 -31.25,45.01 -109.17,42.13 -177.41,-5.64 -31.06,-21.75 -55.31,-49.76 -68.31,-78.88 -14.5,-32.54 -13.69,-63.05 2.33,-85.89"
         style="fill:#f68f9e;fill-opacity:1;fill-rule:nonzero;stroke:none"
         id="path168" />
      <path
         d="m 7488.54,2902.91 v 123.89 l 32.53,32.53 c 44.45,44.45 44.45,117.18 0,161.63 -44.45,44.45 -117.18,44.45 -161.63,0 l -27.13,-27.14 h -134.69 c -62.85,0 -114.28,-51.43 -114.28,-114.28 v 0 c 0,-62.86 51.43,-114.29 114.28,-114.29 h 54.55 c 2,-2.36 4.03,-4.71 6.26,-6.93 0.49,-0.5 1.04,-0.91 1.54,-1.39 v -54.02 c 0,-62.86 51.42,-114.29 114.28,-114.29 v 0 c 62.86,0 114.29,51.43 114.29,114.29"
         style="fill:#d8d7d5;fill-opacity:1;fill-rule:nonzero;stroke:none"
         id="path170" />
      <path
         d="m 7378.89,3475.05 c 14.29,-53.34 1.17,-103.21 -29.31,-111.38 -30.49,-8.16 -66.79,28.46 -81.08,81.81 -14.3,53.34 -1.17,103.21 29.31,111.38 30.48,8.17 66.78,-28.46 81.08,-81.81"
         style="fill:#d8d7d5;fill-opacity:1;fill-rule:nonzero;stroke:none"
         id="path172" />
      <path
         d="m 7775.16,3078.78 c -53.34,14.29 -103.21,1.17 -111.38,-29.32 -8.16,-30.48 28.46,-66.78 81.81,-81.07 53.34,-14.3 103.21,-1.17 111.38,29.31 8.17,30.48 -28.46,66.78 -81.81,81.08"
         style="fill:#d8d7d5;fill-opacity:1;fill-rule:nonzero;stroke:none"
         id="path174" />
      <path
         d="m 7651.24,3416.82 c -45.25,-64.63 -113.37,-95.01 -152.15,-67.86 -38.78,27.16 -33.53,101.56 11.73,166.19 45.25,64.63 113.37,95.01 152.15,67.86 38.78,-27.16 33.52,-101.56 -11.73,-166.19"
         style="fill:#d8d7d5;fill-opacity:1;fill-rule:nonzero;stroke:none"
         id="path176" />
      <path
         d="m 7716.93,3351.13 c -64.63,-45.25 -95.01,-113.37 -67.86,-152.15 27.16,-38.78 101.56,-33.53 166.19,11.73 64.63,45.25 95.01,113.37 67.86,152.15 -27.16,38.78 -101.56,33.52 -166.19,-11.73"
         style="fill:#d8d7d5;fill-opacity:1;fill-rule:nonzero;stroke:none"
         id="path178" />
      <path
         d="m 6005.2,1214.28 v 123.9 l 32.53,32.53 c 44.45,44.45 44.45,117.18 0,161.63 -44.45,44.44 -117.18,44.44 -161.62,0 l -27.14,-27.14 h -134.69 c -62.85,0 -114.28,-51.43 -114.28,-114.28 v -0.01 c 0,-62.85 51.43,-114.28 114.28,-114.28 h 54.55 c 2,-2.36 4.03,-4.71 6.26,-6.94 0.5,-0.49 1.04,-0.9 1.54,-1.38 v -54.03 c 0,-62.85 51.43,-114.28 114.28,-114.28 h 0.01 c 62.85,0 114.28,51.43 114.28,114.28"
         style="fill:#d8d7d5;fill-opacity:1;fill-rule:nonzero;stroke:none"
         id="path180" />
      <path
         d="m 5895.55,1786.43 c 14.3,-53.34 1.17,-103.21 -29.31,-111.38 -30.49,-8.17 -66.79,28.46 -81.08,81.8 -14.29,53.35 -1.17,103.22 29.31,111.38 30.49,8.17 66.79,-28.45 81.08,-81.8"
         style="fill:#d8d7d5;fill-opacity:1;fill-rule:nonzero;stroke:none"
         id="path182" />
      <path
         d="m 6291.83,1390.16 c -53.35,14.29 -103.22,1.17 -111.38,-29.32 -8.17,-30.48 28.45,-66.78 81.8,-81.07 53.35,-14.3 103.21,-1.18 111.38,29.31 8.17,30.48 -28.45,66.78 -81.8,81.08"
         style="fill:#d8d7d5;fill-opacity:1;fill-rule:nonzero;stroke:none"
         id="path184" />
      <path
         d="m 6167.91,1728.2 c -45.26,-64.63 -113.38,-95.01 -152.16,-67.86 -38.77,27.15 -33.53,101.56 11.73,166.19 45.25,64.62 113.37,95.01 152.15,67.85 38.78,-27.15 33.53,-101.55 -11.72,-166.18"
         style="fill:#d8d7d5;fill-opacity:1;fill-rule:nonzero;stroke:none"
         id="path186" />
      <path
         d="m 6233.59,1662.51 c -64.63,-45.25 -95.01,-113.38 -67.85,-152.15 27.15,-38.78 101.55,-33.53 166.18,11.72 64.63,45.26 95.01,113.38 67.86,152.16 -27.15,38.77 -101.56,33.52 -166.19,-11.73"
         style="fill:#d8d7d5;fill-opacity:1;fill-rule:nonzero;stroke:none"
         id="path188" />
      <path
         d="m 6616.48,4058.5 c 15.62,15.62 15.62,40.95 0,56.57 -15.62,15.62 -40.95,15.62 -56.57,0 -15.62,-15.62 -15.62,-40.95 0,-56.57 15.62,-15.62 40.95,-15.62 56.57,0"
         style="fill:#f68f9e;fill-opacity:1;fill-rule:nonzero;stroke:none"
         id="path190" />
      <path
         d="m 6409.96,4428.58 c 185.92,-65.43 313.2,-192.71 378.61,-378.61 -49.47,-45.21 -113.12,-69.97 -180.58,-69.97 -71.58,0 -138.87,27.88 -189.49,78.5 -50.63,50.62 -78.5,117.92 -78.5,189.51 0,67.45 24.75,131.1 69.96,180.57 z m 693.2,553.89 c 56.63,-91.31 138.93,-171.43 245.84,-239.29 h -245.84 z m -712.95,-952.26 c 58.17,-58.17 135.51,-90.21 217.78,-90.21 82.28,0 159.63,32.04 217.79,90.21 5.35,5.36 7.23,13.29 4.83,20.47 -32.49,97.48 -80.76,180.02 -144.01,247.65 l 95.61,95.61 156.54,-260.88 c 5.68,-9.48 17.95,-12.56 27.44,-6.86 9.47,5.68 12.54,17.97 6.86,27.44 l -161.69,269.45 97.49,97.5 128.55,-231.39 c 5.35,-9.64 17.54,-13.15 27.19,-7.76 9.67,5.36 13.14,17.53 7.77,27.19 l -134.09,241.37 83.72,83.73 128.56,-231.4 c 5.35,-9.64 17.56,-13.14 27.18,-7.76 9.67,5.36 13.15,17.54 7.78,27.2 l -134.1,241.37 40.04,40.04 h 331.13 c 9.14,0 17.13,6.21 19.39,15.08 2.25,8.87 -1.81,18.14 -9.84,22.5 -160.27,87 -271.54,198.04 -330.72,330.01 -3.27,7.31 -10.49,11.82 -18.25,11.82 -1.38,0 -2.79,-0.15 -4.18,-0.44 -9.23,-1.97 -15.82,-10.13 -15.82,-19.56 v -331.13 l -40.04,-40.04 -241.36,134.1 c -3.07,1.71 -6.41,2.52 -9.69,2.52 -7.03,0 -13.85,-3.71 -17.5,-10.29 -5.37,-9.65 -1.89,-21.83 7.77,-27.19 l 231.37,-128.55 -83.73,-83.73 -241.37,134.09 c -3.06,1.71 -6.4,2.52 -9.68,2.52 -7.04,0 -13.85,-3.71 -17.5,-10.28 -5.38,-9.66 -1.9,-21.84 7.77,-27.2 l 231.37,-128.54 -97.49,-97.49 -269.45,161.67 c -3.22,1.93 -6.77,2.85 -10.27,2.85 -6.8,0 -13.42,-3.46 -17.17,-9.71 -5.68,-9.47 -2.62,-21.76 6.86,-27.44 l 260.88,-156.53 -95.61,-95.61 c -67.62,63.25 -150.16,111.52 -247.64,144.01 -2.07,0.7 -4.22,1.03 -6.32,1.03 -5.22,0 -10.34,-2.05 -14.15,-5.86 -58.18,-58.17 -90.21,-135.52 -90.21,-217.78 0,-82.28 32.03,-159.62 90.21,-217.8"
         style="fill:#f68f9e;fill-opacity:1;fill-rule:nonzero;stroke:none"
         id="path192" />
      <path
         d="m 7476.11,1315.91 c -15.62,15.62 -15.62,40.95 0,56.57 15.62,15.62 40.95,15.62 56.57,0 15.62,-15.62 15.62,-40.95 0,-56.57 -15.62,-15.62 -40.95,-15.62 -56.57,0"
         style="fill:#f68f9e;fill-opacity:1;fill-rule:nonzero;stroke:none"
         id="path194" />
      <path
         d="m 7752.59,1505.42 c 0,-71.59 -27.87,-138.89 -78.5,-189.51 -50.62,-50.62 -117.91,-78.5 -189.49,-78.5 -67.46,0 -131.11,24.76 -180.59,69.97 65.41,185.9 192.7,313.19 378.62,378.62 45.21,-49.48 69.96,-113.13 69.96,-180.58 z m -763.17,495.18 h -245.84 c 106.92,67.86 189.22,147.97 245.84,239.28 z m 803.17,-495.18 c 0,82.27 -32.03,159.61 -90.22,217.78 -3.81,3.81 -8.92,5.86 -14.14,5.86 -2.11,0 -4.26,-0.33 -6.33,-1.02 -97.47,-32.5 -180.01,-80.77 -247.63,-144.02 l -95.61,95.62 260.88,156.52 c 9.47,5.69 12.54,17.97 6.86,27.44 -3.75,6.25 -10.37,9.71 -17.17,9.71 -3.5,0 -7.05,-0.92 -10.27,-2.85 l -269.46,-161.67 -97.48,97.49 231.37,128.54 c 9.67,5.37 13.14,17.54 7.77,27.2 -3.65,6.57 -10.47,10.28 -17.5,10.28 -3.28,0 -6.62,-0.81 -9.69,-2.51 l -241.37,-134.1 -83.72,83.73 231.36,128.55 c 9.67,5.36 13.15,17.54 7.78,27.2 -3.65,6.57 -10.47,10.28 -17.5,10.28 -3.28,0 -6.62,-0.81 -9.69,-2.52 l -241.36,-134.1 -40.05,40.05 V 2320 c 0,9.43 -6.58,17.59 -15.82,19.56 -1.38,0.29 -2.79,0.44 -4.18,0.44 -7.75,0 -14.98,-4.51 -18.24,-11.82 -59.18,-131.97 -170.45,-243 -330.72,-330.01 -8.03,-4.36 -12.09,-13.63 -9.84,-22.5 2.26,-8.86 10.25,-15.07 19.39,-15.07 h 331.13 l 40.04,-40.04 -134.1,-241.38 c -5.37,-9.66 -1.89,-21.84 7.77,-27.2 9.63,-5.38 21.84,-1.88 27.19,7.77 l 128.56,231.39 83.72,-83.73 -134.1,-241.37 c -5.37,-9.65 -1.89,-21.83 7.78,-27.19 9.65,-5.38 21.83,-1.88 27.19,7.76 l 128.55,231.39 97.49,-97.49 -161.69,-269.46 c -5.68,-9.47 -2.62,-21.75 6.86,-27.44 9.49,-5.7 21.75,-2.61 27.44,6.86 l 156.54,260.88 95.61,-95.61 c -63.25,-67.62 -111.52,-150.17 -144.01,-247.64 -2.4,-7.19 -0.52,-15.12 4.83,-20.47 58.16,-58.18 135.5,-90.22 217.79,-90.22 82.27,0 159.61,32.04 217.77,90.22 58.19,58.17 90.22,135.51 90.22,217.79"
         style="fill:#f68f9e;fill-opacity:1;fill-rule:nonzero;stroke:none"
         id="path196" />
      <path
         d="m 6300,3460 c 0,-22.09 -17.91,-40 -40,-39.99 -22.09,-0.01 -40,17.9 -40,39.99 0,22.09 17.91,40 40,40 22.09,0 40,-17.91 40,-40 z m 59.99,180 c -82.26,0.01 -159.61,-32.03 -217.78,-90.2 -58.18,-58.18 -90.22,-135.53 -90.21,-217.79 0,-7.57 4.28,-14.5 11.06,-17.89 91.9,-45.95 184.4,-70.19 276.94,-73.28 v -135.22 l -295.16,73.79 c -10.72,2.68 -21.57,-3.81 -24.25,-14.56 -2.68,-10.72 3.84,-21.57 14.55,-24.25 L 6340,3064.4 v -137.88 l -254.51,72.72 c -10.6,3.03 -21.7,-3.11 -24.71,-13.73 -3.05,-10.63 3.1,-21.7 13.73,-24.73 l 265.49,-75.86 0.01,-118.4 -254.52,72.72 c -10.61,3.04 -21.72,-3.12 -24.72,-13.74 -3.05,-10.63 3.11,-21.7 13.73,-24.73 l 265.51,-75.85 v -56.63 l -234.15,-234.14 c -6.46,-6.46 -7.72,-16.51 -3.05,-24.38 4.68,-7.86 14.11,-11.54 22.87,-8.95 174.85,51.81 332.04,51.98 467.21,0.51 7.47,-2.86 15.77,-0.94 21.25,4.54 0.98,0.98 1.88,2.08 2.65,3.27 5.14,7.93 4.03,18.35 -2.65,25.02 L 6380,2668.29 v 56.63 l 265.49,75.85 c 3.38,0.96 6.32,2.75 8.64,5.07 4.97,4.97 7.16,12.42 5.1,19.65 -3.03,10.63 -14.1,16.78 -24.73,13.73 l -254.5,-72.7 v 118.41 l 265.49,75.85 c 3.38,0.96 6.32,2.75 8.64,5.07 4.97,4.98 7.16,12.42 5.1,19.65 -3.03,10.63 -14.1,16.78 -24.73,13.73 L 6380,2926.52 v 137.87 l 304.85,76.22 c 3.64,0.91 6.81,2.77 9.28,5.24 4.81,4.81 7.04,11.94 5.27,19.01 -2.68,10.71 -13.53,17.23 -24.25,14.55 L 6380,3105.62 v 135.22 c 92.53,3.09 185.03,27.32 276.94,73.27 1.95,0.97 3.7,2.26 5.2,3.75 3.68,3.69 5.85,8.75 5.85,14.14 0.01,82.28 -32.03,159.62 -90.2,217.79 -58.18,58.18 -135.52,90.22 -217.8,90.21"
         style="fill:#d8d7d5;fill-opacity:1;fill-rule:nonzero;stroke:none"
         id="path198" />
      <path
         d="m 6952.38,7715.78 c 32.32,32.31 84.88,32.27 117.17,0 l 34.39,-34.37 c 3.75,-3.75 10.71,-5.77 16,-5.77 2.3,0 4.59,-0.19 6.85,-0.37 0.51,-0.04 1.04,-0.06 1.55,-0.06 5.29,0 10.37,2.09 14.14,5.86 l 34.71,34.71 c 15.56,15.57 36.38,24.14 58.59,24.14 22.21,0 43.03,-8.57 58.59,-24.14 32.31,-32.3 32.31,-84.88 0,-117.19 l -85.72,-85.7 c -3.75,-3.75 -5.86,-8.83 -5.86,-14.14 v -34.55 c 0,-45.68 -37.17,-82.85 -82.85,-82.85 -45.68,0 -82.85,37.17 -82.85,82.85 v 41.41 c 0,5.31 -2.11,10.39 -5.86,14.14 l -78.85,78.84 c -32.3,32.31 -32.3,84.89 0,117.19 z m 44.71,-218.46 v -33.12 c 0,-67.74 55.11,-122.85 122.85,-122.85 67.73,0 122.85,55.11 122.85,122.85 v 26.27 l 79.86,79.84 c 47.91,47.91 47.91,125.84 0,173.75 -23.94,23.95 -55.41,35.94 -86.87,35.94 -31.47,0 -62.93,-11.99 -86.88,-35.94 l -25.52,-25.52 -25.55,25.52 c -47.89,47.89 -125.84,47.87 -173.73,0 -47.91,-47.91 -47.91,-125.84 0,-173.75 l 72.99,-72.99"
         style="fill:#f68f9e;fill-opacity:1;fill-rule:nonzero;stroke:none"
         id="path200" />
      <path
         d="m 7337.22,7369.67 c 3.03,5.25 11.14,8.69 23.6,8.32 15.92,-0.08 35.13,-5.96 52.73,-16.11 17.6,-10.16 32.29,-23.87 40.31,-37.62 5.92,-10.14 7.64,-19.34 4.59,-24.59 -3,-5.22 -11.69,-8.32 -23.3,-8.32 -0.09,0 -0.19,0 -0.29,0 -15.92,0.08 -35.14,5.94 -52.73,16.09 -37,21.37 -51.31,51.13 -44.91,62.23 z m -34.64,20 c -20.02,-34.69 6.15,-86.02 59.55,-116.88 23.79,-13.73 49.55,-21.34 72.56,-21.44 0.15,0 0.29,0 0.44,0 26.47,0 47.58,10.31 57.97,28.32 10.45,18.1 8.75,41.7 -4.68,64.74 -11.61,19.89 -31.08,38.38 -54.87,52.11 -23.79,13.73 -49.55,21.35 -72.56,21.45 -0.15,0.02 -0.29,0.02 -0.45,0.02 -26.46,0 -47.55,-10.31 -57.96,-28.32"
         style="fill:#f68f9e;fill-opacity:1;fill-rule:nonzero;stroke:none"
         id="path202" />
      <path
         d="m 6786.01,7324.26 c 8.03,13.75 22.72,27.46 40.32,37.62 17.59,10.15 36.81,16.03 52.73,16.11 12.11,-0.29 20.57,-3.07 23.59,-8.32 6.41,-11.1 -7.91,-40.86 -44.9,-62.23 -17.6,-10.15 -36.81,-16.01 -52.73,-16.09 -11.98,-0.08 -20.57,3.06 -23.6,8.32 -3.04,5.25 -1.32,14.45 4.59,24.59 z m -39.24,-44.59 c 10.4,-18.01 31.51,-28.32 57.97,-28.32 0.16,0 0.3,0 0.45,0 23.01,0.1 48.77,7.71 72.56,21.44 53.4,30.86 79.57,82.19 59.55,116.88 -10.41,18.01 -31.5,28.32 -57.97,28.32 -0.15,0 -0.29,0 -0.45,-0.02 -23,-0.1 -48.77,-7.72 -72.55,-21.45 -23.79,-13.73 -43.27,-32.22 -54.87,-52.11 -13.44,-23.04 -15.13,-46.64 -4.69,-64.74"
         style="fill:#f68f9e;fill-opacity:1;fill-rule:nonzero;stroke:none"
         id="path204" />
      <path
         d="m 7256.56,7060.33 c -1.46,-0.25 -2.95,-0.37 -4.45,-0.37 -26.17,0 -60.16,37.81 -70.69,97.38 -5.25,29.87 -3.26,60.04 5.47,82.82 7.4,19.35 19.06,31.73 31.97,34.02 13.13,2.17 28.11,-5.41 41.68,-21.04 16,-18.41 28.19,-46.11 33.46,-75.97 11.1,-62.99 -10.82,-112.13 -37.44,-116.84 z m 34.2,219.05 c -20,23.02 -43.4,35.23 -66.95,35.23 -3.97,0 -7.93,-0.35 -11.88,-1.06 -27.5,-4.82 -49.65,-25.82 -62.4,-59.08 -11.41,-29.78 -14.06,-66.74 -7.48,-104.08 14.47,-82.03 67.56,-139.16 121.46,-129.43 53.64,9.45 84.34,81.13 69.87,163.16 -6.57,37.34 -21.72,71.17 -42.62,95.26"
         style="fill:#f68f9e;fill-opacity:1;fill-rule:nonzero;stroke:none"
         id="path206" />
      <path
         d="m 7058.45,7157.34 c -11.13,-62.98 -48.24,-101.64 -75.13,-97.01 -26.62,4.71 -48.54,53.85 -37.44,116.84 5.27,29.86 17.46,57.56 33.45,75.97 13.58,15.65 28.62,23.44 41.7,21.02 12.89,-2.27 24.55,-14.65 31.96,-34 8.73,-22.78 10.72,-52.95 5.46,-82.82 z m -30.48,156.21 c -3.97,0.71 -7.93,1.06 -11.9,1.06 -23.55,0 -46.95,-12.21 -66.95,-35.23 -20.9,-24.09 -36.06,-57.92 -42.62,-95.26 -14.47,-82.03 16.23,-153.71 69.86,-163.16 53.93,-9.73 107,47.4 121.47,129.43 6.58,37.34 3.93,74.3 -7.48,104.08 -12.75,33.26 -34.9,54.26 -62.38,59.08"
         style="fill:#f68f9e;fill-opacity:1;fill-rule:nonzero;stroke:none"
         id="path208" />
      <path
         d="m 2055.63,7874.77 c 136.35,136.35 519.83,82.18 519.83,82.18 l -2.19,-768.07 c -237.79,149.59 -468.87,521.76 -517.64,685.89"
         style="fill:#d8d7d5;fill-opacity:1;fill-rule:nonzero;stroke:none"
         id="path210" />
      <path
         d="m 2055.63,7874.77 c 63.71,63.7 497.59,-202.73 497.59,-202.73 l 20.05,-483.16 c -237.79,149.59 -592.44,611.08 -517.64,685.89"
         style="fill:#f68f9e;fill-opacity:1;fill-rule:nonzero;stroke:none"
         id="path212" />
      <path
         d="M 3704.27,8000 H 2546.98 c -285.01,-354.55 -124.8,-749.12 126.21,-1000.13 0,0 100.3,-54.72 39.44,-152.57 0,0 412.11,-72.39 807.94,323.43 v 0 c 395.83,395.83 323.44,807.94 323.44,807.94 -70.22,-43.67 -118.22,-4.36 -139.74,21.33"
         style="fill:#d8d7d5;fill-opacity:1;fill-rule:nonzero;stroke:none"
         id="path214" />
      <path
         d="m 3325.66,7462.19 c 12.6,-12.6 16.42,-59.64 -10.24,-86.3 -26.67,-26.66 -73.7,-22.85 -86.31,-10.24 -12.6,12.6 -0.69,43.92 25.97,70.58 26.66,26.66 57.98,38.56 70.58,25.96"
         style="fill:#f68f9e;fill-opacity:1;fill-rule:nonzero;stroke:none"
         id="path216" />
      <path
         d="m 3334.07,7839.95 c -36.36,-36.35 -36.36,-95.29 -0.01,-131.64 36.36,-36.36 95.3,-36.35 131.65,0 36.36,36.36 36.36,95.3 0.01,131.65 -36.36,36.35 -95.3,36.35 -131.65,-0.01"
         style="fill:#323131;fill-opacity:1;fill-rule:nonzero;stroke:none"
         id="path218" />
      <path
         d="m 2851.35,7357.23 c -36.35,-36.35 -36.35,-95.29 0,-131.64 36.35,-36.36 95.29,-36.36 131.64,0 36.36,36.36 36.36,95.3 0.01,131.65 -36.35,36.35 -95.3,36.35 -131.65,-0.01"
         style="fill:#323131;fill-opacity:1;fill-rule:nonzero;stroke:none"
         id="path220" />
      <path
         d="m 7362.17,3871.36 c 136.34,-136.34 519.82,-82.17 519.82,-82.17 l -2.18,768.07 c -237.79,-149.6 -468.87,-521.76 -517.64,-685.9"
         style="fill:#d8d7d5;fill-opacity:1;fill-rule:nonzero;stroke:none"
         id="path222" />
      <path
         d="m 7362.17,3871.36 c 63.7,-63.7 497.58,202.74 497.58,202.74 l 20.06,483.16 c -237.8,-149.6 -592.45,-611.09 -517.64,-685.9"
         style="fill:#f68f9e;fill-opacity:1;fill-rule:nonzero;stroke:none"
         id="path224" />
      <path
         d="m 7981.89,4744.1 c -268.33,-268.33 -426.84,-706.85 -54.66,-1079.02 24.02,-24.03 48.3,-45.77 72.77,-65.44 v 1157.3 c -10.11,-8.47 -18.11,-12.84 -18.11,-12.84"
         style="fill:#d8d7d5;fill-opacity:1;fill-rule:nonzero;stroke:none"
         id="path226" />
      <path
         d="m 125.23,3108.3 c -136.3472,136.35 -82.1792,519.83 -82.1792,519.83 l 768.0742,-2.19 C 661.527,3388.15 289.363,3157.07 125.23,3108.3"
         style="fill:#d8d7d5;fill-opacity:1;fill-rule:nonzero;stroke:none"
         id="path228" />
      <path
         d="m 125.23,3108.3 c -63.7027,63.7 202.735,497.59 202.735,497.59 l 483.16,20.05 C 661.527,3388.15 200.035,3033.49 125.23,3108.3"
         style="fill:#f68f9e;fill-opacity:1;fill-rule:nonzero;stroke:none"
         id="path230" />
      <path
         d="m 0,4756.94 v -1157.3 c 354.547,-285.01 749.117,-124.79 1000.13,126.22 0,0 54.72,100.29 152.57,39.44 0,0 72.39,412.11 -323.43,807.94 h -0.004 C 433.441,4969.06 21.332,4896.67 21.332,4896.67 64.9961,4826.46 25.6875,4778.46 0,4756.94"
         style="fill:#d8d7d5;fill-opacity:1;fill-rule:nonzero;stroke:none"
         id="path232" />
      <path
         d="m 537.809,4378.33 c 12.605,12.6 59.64,16.41 86.3,-10.25 26.661,-26.66 22.848,-73.7 10.243,-86.3 -12.602,-12.6 -43.922,-0.7 -70.579,25.96 -26.66,26.66 -38.566,57.98 -25.964,70.59"
         style="fill:#f68f9e;fill-opacity:1;fill-rule:nonzero;stroke:none"
         id="path234" />
      <path
         d="m 160.047,4386.74 c 36.351,-36.36 95.293,-36.36 131.644,-0.01 36.356,36.36 36.352,95.3 -0.003,131.65 -36.352,36.35 -95.293,36.36 -131.645,0 -36.355,-36.35 -36.352,-95.29 0.004,-131.64"
         style="fill:#323131;fill-opacity:1;fill-rule:nonzero;stroke:none"
         id="path236" />
      <path
         d="m 642.766,3904.02 c 36.351,-36.36 95.293,-36.36 131.644,-0.01 36.356,36.36 36.356,95.3 0,131.65 -36.355,36.36 -95.297,36.36 -131.648,0 -36.352,-36.35 -36.352,-95.29 0.004,-131.64"
         style="fill:#323131;fill-opacity:1;fill-rule:nonzero;stroke:none"
         id="path238" />
      <path
         d="m 5298.04,1840 c -192.83,0 -425.68,309.47 -425.68,309.47 l 544.65,541.56 c 62.37,-273.93 -37.4,-700.49 -118.97,-851.03"
         style="fill:#d8d7d5;fill-opacity:1;fill-rule:nonzero;stroke:none"
         id="path240" />
      <path
         d="m 5298.04,1840 c -90.09,0 -208.49,495.2 -208.49,495.2 l 327.46,355.83 C 5479.38,2417.1 5403.83,1840 5298.04,1840"
         style="fill:#f68f9e;fill-opacity:1;fill-rule:nonzero;stroke:none"
         id="path242" />
      <path
         d="m 4218.9,1840 c 192.83,0 425.69,309.47 425.69,309.47 l -544.66,541.56 c -62.36,-273.93 37.4,-700.49 118.97,-851.03"
         style="fill:#d8d7d5;fill-opacity:1;fill-rule:nonzero;stroke:none"
         id="path244" />
      <path
         d="m 4218.9,1840 c 90.09,0 208.49,495.2 208.49,495.2 l -327.46,355.83 C 4037.57,2417.1 4113.11,1840 4218.9,1840"
         style="fill:#f68f9e;fill-opacity:1;fill-rule:nonzero;stroke:none"
         id="path246" />
      <path
         d="m 4760,3373.7 c -559.78,0 -800,-342.6 -800,-342.6 112.22,-26.16 80,-135.77 80,-135.77 0,-379.48 198,-801.64 724.33,-801.64 526.33,0 715.67,422.16 715.67,801.64 0,0 -32.22,109.61 80,135.77 0,0 -240.22,342.6 -800,342.6"
         style="fill:#d8d7d5;fill-opacity:1;fill-rule:nonzero;stroke:none"
         id="path248" />
      <path
         d="m 4691.73,3029.78 c 0,17.82 30.57,53.78 68.27,53.78 37.7,0 68.27,-35.96 68.27,-53.78 0,-17.82 -30.57,-31.55 -68.27,-31.55 -37.7,0 -68.27,13.73 -68.27,31.55"
         style="fill:#f68f9e;fill-opacity:1;fill-rule:nonzero;stroke:none"
         id="path250" />
      <path
         d="m 4418.67,2768.61 c 51.41,0 93.09,41.67 93.09,93.08 0,51.42 -41.68,93.09 -93.09,93.09 -51.42,0 -93.09,-41.67 -93.09,-93.09 0,-51.41 41.67,-93.08 93.09,-93.08"
         style="fill:#323131;fill-opacity:1;fill-rule:nonzero;stroke:none"
         id="path252" />
      <path
         d="m 5101.33,2768.61 c 51.42,0 93.09,41.68 93.09,93.08 0,51.41 -41.67,93.09 -93.09,93.09 -51.41,0 -93.09,-41.68 -93.09,-93.09 0,-51.4 41.68,-93.08 93.09,-93.08"
         style="fill:#323131;fill-opacity:1;fill-rule:nonzero;stroke:none"
         id="path254" />
      <path
         d="m 6532.66,7053.56 c 136.35,-136.34 82.18,-519.82 82.18,-519.82 l -768.07,2.19 c 149.59,237.79 521.76,468.87 685.89,517.63"
         style="fill:#d8d7d5;fill-opacity:1;fill-rule:nonzero;stroke:none"
         id="path256" />
      <path
         d="m 6532.66,7053.56 c 63.71,-63.7 -202.73,-497.58 -202.73,-497.58 l -483.16,-20.05 c 149.59,237.79 611.09,592.44 685.89,517.63"
         style="fill:#f68f9e;fill-opacity:1;fill-rule:nonzero;stroke:none"
         id="path258" />
      <path
         d="m 7295.73,6290.5 c -136.35,136.35 -519.83,82.18 -519.83,82.18 l 2.19,-768.07 c 237.79,149.59 468.87,521.76 517.64,685.89"
         style="fill:#d8d7d5;fill-opacity:1;fill-rule:nonzero;stroke:none"
         id="path260" />
      <path
         d="m 7295.73,6290.5 c -63.71,63.7 -497.59,-202.73 -497.59,-202.73 l -20.05,-483.16 c 237.79,149.59 592.44,611.09 517.64,685.89"
         style="fill:#f68f9e;fill-opacity:1;fill-rule:nonzero;stroke:none"
         id="path262" />
      <path
         d="m 5828.63,5588.63 c 395.83,-395.83 807.93,-323.44 807.93,-323.44 -60.85,97.85 39.45,152.58 39.45,152.58 268.33,268.33 426.83,706.84 54.65,1079.02 -372.17,372.17 -804.56,207.55 -1072.89,-60.78 0,0 -54.73,-100.3 -152.58,-39.45 0,0 -72.39,-412.1 323.44,-807.93"
         style="fill:#d8d7d5;fill-opacity:1;fill-rule:nonzero;stroke:none"
         id="path264" />
      <path
         d="m 6120.09,5783.54 c -12.61,-12.6 -59.65,-16.42 -86.31,10.24 -26.66,26.66 -22.84,73.7 -10.24,86.31 12.6,12.6 43.92,0.69 70.58,-25.97 26.66,-26.66 38.57,-57.98 25.97,-70.58"
         style="fill:#f68f9e;fill-opacity:1;fill-rule:nonzero;stroke:none"
         id="path266" />
      <path
         d="m 6497.85,5775.13 c -36.36,36.35 -95.3,36.36 -131.65,0 -36.35,-36.35 -36.35,-95.29 0.01,-131.64 36.35,-36.36 95.29,-36.36 131.64,-0.01 36.35,36.36 36.35,95.3 0,131.65"
         style="fill:#323131;fill-opacity:1;fill-rule:nonzero;stroke:none"
         id="path268" />
      <path
         d="m 6015.13,6257.85 c -36.35,36.35 -95.3,36.35 -131.65,0 -36.35,-36.35 -36.35,-95.29 0.01,-131.65 36.35,-36.35 95.29,-36.35 131.64,0 36.35,36.35 36.35,95.29 0,131.65"
         style="fill:#323131;fill-opacity:1;fill-rule:nonzero;stroke:none"
         id="path270" />
      <path
         d="m 98.5703,6965.72 c 62.8597,0 114.2847,51.42 114.2847,114.28 0,62.86 -51.425,114.29 -114.2847,114.29 H 60.1953 L 0,7254.48 v -341.33 l 52.5664,52.57 h 46.0039"
         style="fill:#d8d7d5;fill-opacity:1;fill-rule:nonzero;stroke:none"
         id="path272" />
      <path
         d="m 291.996,7360.21 c 27.613,47.83 27.844,99.4 0.512,115.17 -27.332,15.78 -71.871,-10.2 -99.485,-58.02 -27.617,-47.84 -27.847,-99.4 -0.515,-115.18 27.332,-15.78 71.871,10.2 99.488,58.03"
         style="fill:#d8d7d5;fill-opacity:1;fill-rule:nonzero;stroke:none"
         id="path274" />
      <path
         d="m 192.508,6857.82 c -27.332,-15.78 -27.102,-67.34 0.515,-115.17 27.614,-47.83 72.153,-73.81 99.485,-58.03 27.332,15.78 27.101,67.34 -0.512,115.17 -27.617,47.83 -72.156,73.81 -99.488,58.03"
         style="fill:#d8d7d5;fill-opacity:1;fill-rule:nonzero;stroke:none"
         id="path276" />
      <path
         d="m 413.633,7295.27 c -77.699,-13.7 -134.024,-62.59 -125.805,-109.22 8.223,-46.61 77.871,-73.3 155.574,-59.6 77.696,13.7 134.024,62.6 125.801,109.22 -8.219,46.62 -77.871,73.31 -155.57,59.6"
         style="fill:#d8d7d5;fill-opacity:1;fill-rule:nonzero;stroke:none"
         id="path278" />
      <path
         d="m 443.402,7033.55 c -77.703,13.7 -147.351,-12.99 -155.574,-59.6 -8.219,-46.63 48.106,-95.52 125.805,-109.22 77.699,-13.7 147.351,12.98 155.57,59.6 8.223,46.62 -48.105,95.52 -125.801,109.22"
         style="fill:#d8d7d5;fill-opacity:1;fill-rule:nonzero;stroke:none"
         id="path280" />
      <path
         d="m 7803.33,7289.52 v 0 c -44.44,-44.44 -44.44,-117.18 0,-161.62 l 38.57,-38.57 c -0.25,-3.09 -0.47,-6.18 -0.47,-9.33 0,-0.7 0.09,-1.37 0.1,-2.07 l -38.2,-38.2 c -44.44,-44.44 -44.44,-117.18 0,-161.62 v 0 c 44.45,-44.45 117.18,-44.45 161.63,0 l 35.04,35.04 v 341.33 l -35.04,35.04 c -44.45,44.45 -117.18,44.45 -161.63,0"
         style="fill:#d8d7d5;fill-opacity:1;fill-rule:nonzero;stroke:none"
         id="path282" />
      <path
         d="m 1066.84,7528.82 c -56.63,91.31 -138.93,171.43 -245.844,239.29 h 245.844 z m 11.71,279.29 H 747.422 c -9.141,0 -17.129,-6.21 -19.395,-15.08 -2.246,-8.87 1.817,-18.13 9.844,-22.5 160.274,-87 271.539,-198.03 330.719,-330.01 3.27,-7.3 10.49,-11.81 18.25,-11.81 1.38,0 2.79,0.14 4.18,0.43 9.23,1.98 15.82,10.13 15.82,19.57 v 331.12 l 40.04,40.05 241.36,-134.1 c 3.07,-1.71 6.41,-2.52 9.69,-2.52 7.03,0 13.85,3.71 17.5,10.28 5.37,9.66 1.89,21.84 -7.77,27.2 l -231.37,128.55 83.73,83.72 241.37,-134.09 c 3.06,-1.71 6.4,-2.52 9.68,-2.52 7.04,0 13.85,3.71 17.5,10.28 5.38,9.66 1.9,21.84 -7.77,27.2 L 1289.43,7962.43 1327,8000 h -56.56 l -9.29,-9.29 -5.16,9.29 h -45.76 l 21.5,-38.71 -83.72,-83.72 -68.02,122.43 h -45.76 l 84.36,-151.85 -40.04,-40.04"
         style="fill:#f68f9e;fill-opacity:1;fill-rule:nonzero;stroke:none"
         id="path284" />
      <path
         d="m 1666.64,7895.39 c 6.8,0 13.42,3.46 17.17,9.71 5.68,9.47 2.62,21.76 -6.86,27.44 L 1564.52,8000 h -77.74 l 169.59,-101.75 c 3.22,-1.94 6.77,-2.86 10.27,-2.86"
         style="fill:#f68f9e;fill-opacity:1;fill-rule:nonzero;stroke:none"
         id="path286" />
      <path
         d="m 1610.09,396.23 c 15.62,15.622 15.62,40.942 0,56.559 -15.62,15.621 -40.95,15.621 -56.57,0 -15.62,-15.617 -15.62,-40.937 0,-56.559 15.62,-15.628 40.95,-15.628 56.57,0"
         style="fill:#f68f9e;fill-opacity:1;fill-rule:nonzero;stroke:none"
         id="path288" />
      <path
         d="m 1105.41,229.859 c -9.67,-5.359 -13.14,-17.539 -7.77,-27.199 L 1210.23,0 h 45.76 L 1132.6,222.09 c -5.35,9.64 -17.54,13.148 -27.19,7.769"
         style="fill:#f68f9e;fill-opacity:1;fill-rule:nonzero;stroke:none"
         id="path290" />
      <path
         d="m 1381.43,461.32 c 49.47,45.219 113.12,69.969 180.58,69.969 71.58,0 138.87,-27.879 189.49,-78.488 50.63,-50.629 78.5,-117.922 78.5,-189.512 0,-67.457 -24.75,-131.109 -69.96,-180.5781 -185.92,65.4301 -313.2,192.7111 -378.61,378.6091 z m 130.25,-276.629 c 67.62,-63.25 150.16,-111.5308 247.64,-144.0191 2.07,-0.6914 4.22,-1.0313 6.32,-1.0313 5.22,0 10.34,2.0508 14.15,5.8594 58.18,58.18 90.21,135.52 90.21,217.789 0,82.274 -32.03,159.621 -90.21,217.789 -58.17,58.172 -135.51,90.211 -217.78,90.211 -82.28,0 -159.63,-32.039 -217.79,-90.211 -5.35,-5.348 -7.23,-13.277 -4.83,-20.469 32.49,-97.48 80.76,-180.019 144.01,-247.64 l -95.61,-95.617 -156.54,260.886 c -5.68,9.473 -17.95,12.563 -27.44,6.852 -9.47,-5.68 -12.54,-17.969 -6.86,-27.438 L 1358.64,88.1992 1270.44,0 H 1327 L 1386.92,59.9219 1486.78,0 h 77.74 l -148.45,89.0703 95.61,95.6207"
         style="fill:#f68f9e;fill-opacity:1;fill-rule:nonzero;stroke:none"
         id="path292" />
      <path
         d="m 992.266,116.719 c -9.668,-5.36 -13.145,-17.5393 -7.774,-27.1877 L 1034.23,0 h 45.76 l -60.54,108.961 c -5.35,9.648 -17.56,13.141 -27.184,7.758"
         style="fill:#f68f9e;fill-opacity:1;fill-rule:nonzero;stroke:none"
         id="path294" />
      <path
         d="m 506.105,6284.09 c 15.622,15.62 40.95,15.62 56.567,0 15.621,-15.62 15.621,-40.95 0,-56.57 -15.617,-15.62 -40.945,-15.62 -56.567,0 -15.621,15.62 -15.621,40.95 0,56.57 z M 39.4219,5260 c 1.3867,0 2.7929,0.15 4.1797,0.44 9.2382,1.97 15.8203,10.13 15.8203,19.56 v 331.12 l 40.0429,40.05 241.3632,-134.1 c 3.067,-1.71 6.406,-2.52 9.688,-2.52 7.031,0 13.847,3.71 17.5,10.28 5.371,9.66 1.894,21.84 -7.774,27.2 l -231.363,128.55 83.723,83.73 241.371,-134.1 c 3.066,-1.7 6.406,-2.51 9.687,-2.51 7.031,0 13.848,3.71 17.5,10.28 5.371,9.66 1.895,21.83 -7.773,27.2 l -231.371,128.54 97.488,97.49 269.449,-161.67 c 3.223,-1.93 6.777,-2.85 10.274,-2.85 6.796,0 13.418,3.46 17.168,9.71 5.683,9.47 2.617,21.75 -6.856,27.44 l -260.883,156.52 95.614,95.62 c 67.617,-63.25 150.156,-111.52 247.632,-144.02 2.071,-0.69 4.219,-1.02 6.328,-1.02 5.215,0 10.333,2.05 14.141,5.86 58.184,58.17 90.215,135.51 90.215,217.78 0,82.28 -32.031,159.62 -90.215,217.79 -58.164,58.18 -135.508,90.22 -217.773,90.22 -82.285,0 -159.629,-32.04 -217.793,-90.22 -5.352,-5.35 -7.227,-13.28 -4.825,-20.47 32.485,-97.47 80.758,-180.02 144.008,-247.64 l -95.613,-95.61 -156.539,260.88 c -5.684,9.47 -17.949,12.56 -27.441,6.86 -9.473,-5.69 -12.54,-17.97 -6.856,-27.44 L 311.223,5919.49 213.734,5822 85.1836,6053.39 c -5.3516,9.64 -17.5391,13.14 -27.1875,7.76 -9.668,-5.36 -13.1445,-17.54 -7.7734,-27.19 L 184.32,5792.59 100.594,5708.86 0,5889.93 v -82.37 L 71.1797,5679.44 31.1406,5639.4 H 0 v -325.49 c 7.62891,-13.8 14.7695,-27.8 21.1797,-42.09 3.2617,-7.31 10.4883,-11.82 18.2422,-11.82"
         style="fill:#d8d7d5;fill-opacity:1;fill-rule:nonzero;stroke:none"
         id="path296" />
      <path
         d="m 7680.61,5624.33 c -2.25,-8.87 1.82,-18.14 9.84,-22.5 142.92,-77.58 246.75,-174.32 309.55,-287.92 v 325.49 h -300 c -9.14,0 -17.12,-6.21 -19.39,-15.07"
         style="fill:#d8d7d5;fill-opacity:1;fill-rule:nonzero;stroke:none"
         id="path298" />
      <path
         d="m 7944.85,5948.02 c -9.67,-5.36 -13.15,-17.54 -7.77,-27.2 L 8000,5807.56 v 82.36 l -27.96,50.33 c -5.36,9.65 -17.56,13.15 -27.19,7.77"
         style="fill:#d8d7d5;fill-opacity:1;fill-rule:nonzero;stroke:none"
         id="path300" />
    </g>
  </g>
</svg>
